<svg width="288" height="215" viewBox="0 0 288 215" fill="none" xmlns="http://www.w3.org/2000/svg">
<path d="M288 188.907H0.754395V189.051H288V188.907Z" fill="#EBEBEB"/>
<path d="M259.218 198.15H240.191V198.294H259.218V198.15Z" fill="#EBEBEB"/>
<path d="M191.037 199.713H186.045V199.857H191.037V199.713Z" fill="#EBEBEB"/>
<path d="M239.616 192.819H228.592V192.963H239.616V192.819Z" fill="#EBEBEB"/>
<path d="M55.7044 193.784H30.8921V193.928H55.7044V193.784Z" fill="#EBEBEB"/>
<path d="M64.4598 193.784H60.8232V193.928H64.4598V193.784Z" fill="#EBEBEB"/>
<path d="M130.101 196.208H76.2827V196.352H130.101V196.208Z" fill="#EBEBEB"/>
<path d="M136.909 163.284H25.9802C25.1112 163.283 24.2783 162.937 23.6643 162.322C23.0504 161.707 22.7056 160.873 22.7056 160.004V4.06998C22.7131 3.20596 23.0613 2.37981 23.6744 1.77099C24.2875 1.16217 25.1161 0.819839 25.9802 0.818359H136.909C137.779 0.818359 138.613 1.16397 139.228 1.77915C139.843 2.39433 140.189 3.2287 140.189 4.0987V160.004C140.189 160.874 139.843 161.709 139.228 162.324C138.613 162.939 137.779 163.284 136.909 163.284ZM25.9802 0.933258C25.1493 0.93478 24.3529 1.26593 23.7659 1.85401C23.1789 2.44209 22.8492 3.23906 22.8492 4.06998V160.004C22.8492 160.835 23.1789 161.632 23.7659 162.22C24.3529 162.808 25.1493 163.139 25.9802 163.141H136.909C137.74 163.139 138.537 162.808 139.125 162.22C139.713 161.633 140.044 160.836 140.045 160.004V4.06998C140.044 3.23854 139.713 2.44158 139.125 1.85366C138.537 1.26574 137.74 0.934777 136.909 0.933258H25.9802Z" fill="#EBEBEB"/>
<path d="M261.177 163.284H150.243C149.373 163.283 148.54 162.937 147.925 162.322C147.31 161.707 146.964 160.874 146.962 160.004V4.06998C146.971 3.20544 147.321 2.3793 147.935 1.77063C148.549 1.16197 149.378 0.819823 150.243 0.818359H261.177C262.04 0.821349 262.867 1.16435 263.479 1.77301C264.091 2.38167 264.438 3.20695 264.446 4.06998V160.004C264.446 160.872 264.102 161.705 263.489 162.32C262.876 162.934 262.045 163.281 261.177 163.284ZM150.243 0.933258C149.411 0.934777 148.614 1.26574 148.026 1.85366C147.439 2.44158 147.108 3.23854 147.106 4.06998V160.004C147.108 160.836 147.439 161.633 148.026 162.22C148.614 162.808 149.411 163.139 150.243 163.141H261.177C262.008 163.139 262.805 162.808 263.393 162.22C263.981 161.633 264.312 160.836 264.314 160.004V4.06998C264.312 3.23854 263.981 2.44158 263.393 1.85366C262.805 1.26574 262.008 0.934777 261.177 0.933258H150.243Z" fill="#EBEBEB"/>
<path d="M87.7436 105.479H48.7988V112.925H87.7436V105.479Z" fill="#E0E0E0"/>
<path d="M81.5794 107.013H79.3389V111.574H81.5794V107.013Z" fill="#FAFAFA"/>
<path d="M85.4056 107.013H83.165V111.574H85.4056V107.013Z" fill="#EBEBEB"/>
<path d="M54.0039 111.54C55.3047 111.54 56.3593 110.485 56.3593 109.184C56.3593 107.884 55.3047 106.829 54.0039 106.829C52.703 106.829 51.6484 107.884 51.6484 109.184C51.6484 110.485 52.703 111.54 54.0039 111.54Z" fill="#F0F0F0"/>
<path d="M53.4412 109.184C53.4412 109.244 53.4237 109.301 53.3909 109.35C53.3581 109.4 53.3114 109.438 53.2568 109.46C53.2022 109.483 53.1422 109.489 53.0842 109.477C53.0263 109.466 52.973 109.437 52.9312 109.396C52.8895 109.354 52.861 109.301 52.8495 109.243C52.838 109.185 52.8439 109.125 52.8665 109.07C52.8891 109.016 52.9274 108.969 52.9765 108.936C53.0256 108.903 53.0834 108.886 53.1425 108.886C53.2217 108.886 53.2977 108.917 53.3537 108.973C53.4097 109.029 53.4412 109.105 53.4412 109.184Z" fill="#E0E0E0"/>
<path d="M55.1644 109.185C55.1644 109.264 55.1329 109.34 55.0769 109.396C55.0209 109.452 54.9449 109.483 54.8657 109.483C54.8212 109.496 54.7744 109.498 54.7289 109.49C54.6835 109.481 54.6406 109.462 54.6037 109.435C54.5668 109.407 54.5368 109.371 54.5162 109.329C54.4956 109.288 54.4849 109.242 54.4849 109.196C54.4849 109.15 54.4956 109.104 54.5162 109.063C54.5368 109.021 54.5668 108.985 54.6037 108.958C54.6406 108.93 54.6835 108.911 54.7289 108.902C54.7744 108.894 54.8212 108.896 54.8657 108.909C54.9411 108.909 55.0138 108.937 55.0692 108.988C55.1246 109.039 55.1586 109.109 55.1644 109.185Z" fill="#E0E0E0"/>
<path d="M60.7543 111.54C62.0552 111.54 63.1098 110.485 63.1098 109.184C63.1098 107.884 62.0552 106.829 60.7543 106.829C59.4535 106.829 58.3989 107.884 58.3989 109.184C58.3989 110.485 59.4535 111.54 60.7543 111.54Z" fill="#F0F0F0"/>
<path d="M60.1912 109.185C60.1912 109.244 60.1735 109.302 60.1404 109.351C60.1074 109.4 60.0604 109.439 60.0054 109.461C59.9505 109.483 59.8902 109.489 59.8321 109.477C59.774 109.465 59.7207 109.436 59.6792 109.394C59.6377 109.351 59.6097 109.298 59.5988 109.239C59.5879 109.181 59.5947 109.121 59.6182 109.066C59.6417 109.012 59.6809 108.965 59.7307 108.933C59.7806 108.901 59.8389 108.885 59.8982 108.886C59.9372 108.886 59.9758 108.894 60.0117 108.909C60.0476 108.924 60.0802 108.946 60.1075 108.974C60.1347 109.001 60.1562 109.034 60.1706 109.071C60.185 109.107 60.192 109.146 60.1912 109.185Z" fill="#E0E0E0"/>
<path d="M61.9149 109.184C61.9149 109.244 61.8973 109.301 61.8645 109.35C61.8317 109.4 61.785 109.438 61.7304 109.46C61.6759 109.483 61.6158 109.489 61.5578 109.477C61.4999 109.466 61.4467 109.437 61.4049 109.396C61.3631 109.354 61.3347 109.301 61.3231 109.243C61.3116 109.185 61.3175 109.125 61.3401 109.07C61.3627 109.016 61.401 108.969 61.4501 108.936C61.4993 108.903 61.557 108.886 61.6161 108.886C61.6953 108.886 61.7713 108.917 61.8274 108.973C61.8834 109.029 61.9149 109.105 61.9149 109.184Z" fill="#E0E0E0"/>
<path d="M67.8491 111.54C69.1499 111.54 70.2045 110.485 70.2045 109.184C70.2045 107.884 69.1499 106.829 67.8491 106.829C66.5482 106.829 65.4937 107.884 65.4937 109.184C65.4937 110.485 66.5482 111.54 67.8491 111.54Z" fill="#F0F0F0"/>
<path d="M67.2864 109.184C67.2864 109.244 67.2689 109.301 67.2361 109.35C67.2033 109.4 67.1566 109.438 67.102 109.46C67.0474 109.483 66.9874 109.489 66.9294 109.477C66.8715 109.466 66.8182 109.437 66.7765 109.396C66.7347 109.354 66.7062 109.301 66.6947 109.243C66.6832 109.185 66.6891 109.125 66.7117 109.07C66.7343 109.016 66.7726 108.969 66.8217 108.936C66.8709 108.903 66.9286 108.886 66.9877 108.886C67.0669 108.886 67.1429 108.917 67.1989 108.973C67.255 109.029 67.2864 109.105 67.2864 109.184Z" fill="#E0E0E0"/>
<path d="M69.0042 109.184C69.0042 109.244 68.9867 109.301 68.9539 109.35C68.921 109.4 68.8744 109.438 68.8198 109.46C68.7652 109.483 68.7051 109.489 68.6472 109.477C68.5892 109.466 68.536 109.437 68.4942 109.396C68.4525 109.354 68.424 109.301 68.4125 109.243C68.401 109.185 68.4069 109.125 68.4295 109.07C68.4521 109.016 68.4904 108.969 68.5395 108.936C68.5886 108.903 68.6464 108.886 68.7055 108.886C68.7847 108.886 68.8607 108.917 68.9167 108.973C68.9727 109.029 69.0042 109.105 69.0042 109.184Z" fill="#E0E0E0"/>
<path d="M232.975 25.9066H130.193V119.888H232.975V25.9066Z" fill="#E6E6E6"/>
<path d="M231.361 29.6292H133.468V116.36H231.361V29.6292Z" fill="#F0F0F0"/>
<path d="M165.358 29.6292L147.721 116.36H138.69L156.287 29.6292H165.358Z" fill="#FAFAFA"/>
<path d="M172.832 29.6292L155.195 116.36H151.869L169.506 29.6292H172.832Z" fill="#FAFAFA"/>
<path d="M212.402 52.4651L199.413 116.36H196.087L212.402 36.1094V52.4651Z" fill="#FAFAFA"/>
<path d="M202.274 29.6292H211.225L193.72 116.36H184.649L202.274 29.6292Z" fill="#FAFAFA"/>
<path d="M182.736 25.9066H180.438V119.888H182.736V25.9066Z" fill="#E6E6E6"/>
<path d="M217.378 130.573V21.8907H214.867V130.573H217.378Z" fill="#E0E0E0"/>
<path d="M213.046 130.573V21.8907H210.535V130.573H213.046Z" fill="#E0E0E0"/>
<path d="M208.708 130.579V21.8965H206.198V130.579H208.708Z" fill="#E0E0E0"/>
<path d="M204.371 130.573V21.8907H201.861V130.573H204.371Z" fill="#E0E0E0"/>
<path d="M200.04 130.573V21.8907H197.529V130.573H200.04Z" fill="#E0E0E0"/>
<path d="M221.715 130.579V21.8965H219.205V130.579H221.715Z" fill="#E0E0E0"/>
<path d="M224.329 130.573V21.8907H221.819V130.573H224.329Z" fill="#EBEBEB"/>
<path d="M226.938 130.579V21.8965H224.427V130.579H226.938Z" fill="#E0E0E0"/>
<path d="M229.672 130.579V21.8965H227.161V130.579H229.672Z" fill="#EBEBEB"/>
<path d="M237.629 130.573V21.8907H235.118V130.573H237.629Z" fill="#E0E0E0"/>
<path d="M236.267 130.573V21.8907H233.757V130.573H236.267Z" fill="#EBEBEB"/>
<path d="M234.906 130.573V21.8907H232.395V130.573H234.906Z" fill="#E0E0E0"/>
<path d="M233.544 130.579V21.8965H231.033V130.579H233.544Z" fill="#EBEBEB"/>
<path d="M232.183 130.579V21.8965H229.672V130.579H232.183Z" fill="#E0E0E0"/>
<path d="M144.377 214.851C205.895 214.851 255.765 211.939 255.765 208.348C255.765 204.756 205.895 201.844 144.377 201.844C82.8594 201.844 32.9893 204.756 32.9893 208.348C32.9893 211.939 82.8594 214.851 144.377 214.851Z" fill="#F5F5F5"/>
<path d="M230.086 121.963V134.889L234.159 132.74C235.532 132.016 236.526 129.948 236.704 127.46L236.744 126.829C236.928 124.243 235.773 121.963 234.285 121.963H230.086ZM234.63 131.292L230.999 133.205V123.646H234.337C235.314 123.646 236.061 125.14 235.951 126.84L235.814 128.833C235.722 129.988 235.268 130.953 234.63 131.292Z" fill="#263238"/>
<path opacity="0.4" d="M230.086 121.963V134.889L234.159 132.74C235.532 132.016 236.526 129.948 236.704 127.46L236.744 126.829C236.928 124.243 235.773 121.963 234.285 121.963H230.086ZM234.63 131.292L230.999 133.205V123.646H234.337C235.314 123.646 236.061 125.14 235.951 126.84L235.814 128.833C235.722 129.988 235.268 130.953 234.63 131.292Z" fill="white"/>
<path d="M235.17 139.163H221.652L223.473 120.762L232.677 120.733L235.17 139.163Z" fill="#263238"/>
<path opacity="0.6" d="M235.17 139.163H221.652L223.473 120.762L232.677 120.733L235.17 139.163Z" fill="white"/>
<path d="M243.414 140.817H202.573V196.761H243.414V140.817Z" fill="#263238"/>
<path opacity="0.4" d="M243.414 140.817H202.573V196.761H243.414V140.817Z" fill="white"/>
<path d="M249.4 142.972H204.348C203.368 142.972 202.573 143.767 202.573 144.747V145.293C202.573 146.273 203.368 147.068 204.348 147.068H249.4C250.38 147.068 251.175 146.273 251.175 145.293V144.747C251.175 143.767 250.38 142.972 249.4 142.972Z" fill="#263238"/>
<path opacity="0.7" d="M249.4 142.972H204.348C203.368 142.972 202.573 143.767 202.573 144.747V145.293C202.573 146.273 203.368 147.068 204.348 147.068H249.4C250.38 147.068 251.175 146.273 251.175 145.293V144.747C251.175 143.767 250.38 142.972 249.4 142.972Z" fill="white"/>
<path d="M249.263 143.891H232.97C231.914 143.891 231.057 144.747 231.057 145.804V151.399C231.057 152.456 231.914 153.312 232.97 153.312H249.263C250.319 153.312 251.176 152.456 251.176 151.399V145.804C251.176 144.747 250.319 143.891 249.263 143.891Z" fill="#263238"/>
<path opacity="0.5" d="M249.263 143.891H232.97C231.914 143.891 231.057 144.747 231.057 145.804V151.399C231.057 152.456 231.914 153.312 232.97 153.312H249.263C250.319 153.312 251.176 152.456 251.176 151.399V145.804C251.176 144.747 250.319 143.891 249.263 143.891Z" fill="white"/>
<path d="M241.759 142.472H204.228C203.789 142.472 203.368 142.297 203.058 141.987C202.748 141.677 202.573 141.256 202.573 140.817C202.573 140.378 202.748 139.958 203.058 139.647C203.368 139.337 203.789 139.163 204.228 139.163H241.759C242.198 139.163 242.619 139.337 242.929 139.647C243.24 139.958 243.414 140.378 243.414 140.817C243.414 141.256 243.24 141.677 242.929 141.987C242.619 142.297 242.198 142.472 241.759 142.472Z" fill="#263238"/>
<path opacity="0.5" d="M241.759 142.472H204.228C203.789 142.472 203.368 142.297 203.058 141.987C202.748 141.677 202.573 141.256 202.573 140.817C202.573 140.378 202.748 139.958 203.058 139.647C203.368 139.337 203.789 139.163 204.228 139.163H241.759C242.198 139.163 242.619 139.337 242.929 139.647C243.24 139.958 243.414 140.378 243.414 140.817C243.414 141.256 243.24 141.677 242.929 141.987C242.619 142.297 242.198 142.472 241.759 142.472Z" fill="white"/>
<path d="M251.175 179.79H236.732V196.76H251.175V179.79Z" fill="#263238"/>
<path opacity="0.6" d="M251.175 179.79H236.732V196.76H251.175V179.79Z" fill="white"/>
<path d="M217.878 139.163H213.472L212.323 128.937H218.74L217.878 139.163Z" fill="#263238"/>
<path opacity="0.6" d="M217.878 139.163H213.472L212.323 128.937H218.74L217.878 139.163Z" fill="white"/>
<path d="M236.508 165.502H202.573V196.743H236.508V165.502Z" fill="#263238"/>
<path opacity="0.7" d="M236.508 165.502H202.573V196.743H236.508V165.502Z" fill="white"/>
<path d="M236.508 156.19H202.573V164.98H236.508V156.19Z" fill="#263238"/>
<path opacity="0.6" d="M236.508 156.19H202.573V164.98H236.508V156.19Z" fill="white"/>
<path d="M207.077 175.343H205.106V186.718H207.077V175.343Z" fill="#263238"/>
<path opacity="0.4" d="M207.077 175.343H205.106V186.718H207.077V175.343Z" fill="white"/>
<path d="M224.909 157.253H214.172V159.551H224.909V157.253Z" fill="#263238"/>
<path opacity="0.4" d="M224.909 157.253H214.172V159.551H224.909V157.253Z" fill="white"/>
<path d="M243.954 145.626H238.278V147.074H243.954V145.626Z" fill="#263238"/>
<path opacity="0.4" d="M243.954 145.626H238.278V147.074H243.954V145.626Z" fill="white"/>
<path d="M226.012 120.756L223.76 124.375L222.611 120.733L226.012 120.756Z" fill="#263238"/>
<path opacity="0.4" d="M226.012 120.756L223.76 124.375L222.611 120.733L226.012 120.756Z" fill="white"/>
<path d="M232.642 120.733H223.341V120.687C223.43 119.862 223.819 119.098 224.435 118.54C225.05 117.983 225.849 117.672 226.679 117.665H229.305C230.142 117.673 230.947 117.991 231.563 118.558C232.18 119.124 232.564 119.899 232.642 120.733Z" fill="#263238"/>
<path opacity="0.5" d="M232.642 120.733H223.341V120.687C223.43 119.862 223.819 119.098 224.435 118.54C225.05 117.983 225.849 117.672 226.679 117.665H229.305C230.142 117.673 230.947 117.991 231.563 118.558C232.18 119.124 232.564 119.899 232.642 120.733Z" fill="white"/>
<path d="M201.74 204.332C201.74 204.918 201.914 205.49 202.239 205.976C202.564 206.463 203.026 206.842 203.567 207.066C204.107 207.29 204.702 207.348 205.276 207.234C205.85 207.12 206.377 206.838 206.791 206.424C207.205 206.011 207.486 205.484 207.601 204.91C207.715 204.336 207.656 203.741 207.432 203.2C207.208 202.66 206.829 202.197 206.343 201.872C205.856 201.547 205.284 201.374 204.699 201.374C204.31 201.373 203.925 201.449 203.566 201.597C203.206 201.746 202.88 201.964 202.605 202.239C202.33 202.514 202.112 202.84 201.964 203.199C201.815 203.559 201.739 203.944 201.74 204.332Z" fill="#263238"/>
<path opacity="0.3" d="M203.55 204.332C203.55 204.559 203.617 204.782 203.743 204.971C203.87 205.16 204.049 205.307 204.259 205.394C204.469 205.481 204.7 205.503 204.923 205.459C205.146 205.415 205.351 205.305 205.511 205.145C205.672 204.984 205.781 204.779 205.826 204.556C205.87 204.333 205.847 204.102 205.76 203.893C205.673 203.683 205.526 203.503 205.337 203.377C205.148 203.251 204.926 203.183 204.699 203.183C204.394 203.183 204.102 203.304 203.886 203.52C203.671 203.735 203.55 204.027 203.55 204.332Z" fill="black"/>
<path d="M204.699 204.332L201.74 203.218C201.889 202.643 202.208 202.126 202.655 201.735C203.101 201.343 203.655 201.095 204.245 201.023C204.839 200.925 205.448 201.004 205.997 201.249C206.547 201.494 207.012 201.895 207.336 202.402L204.699 204.332Z" fill="#263238"/>
<path opacity="0.3" d="M204.699 204.332L201.74 203.218C201.889 202.643 202.208 202.126 202.655 201.735C203.101 201.343 203.655 201.095 204.245 201.023C204.839 200.925 205.448 201.004 205.997 201.249C206.547 201.494 207.012 201.895 207.336 202.402L204.699 204.332Z" fill="white"/>
<path d="M206.819 196.743H202.573V200.989H206.819V196.743Z" fill="#263238"/>
<path opacity="0.3" d="M206.819 196.743H202.573V200.989H206.819V196.743Z" fill="white"/>
<path d="M231.171 204.332C231.171 204.918 231.345 205.49 231.67 205.976C231.995 206.463 232.457 206.842 232.998 207.066C233.538 207.29 234.133 207.348 234.707 207.234C235.281 207.12 235.808 206.838 236.222 206.424C236.636 206.011 236.918 205.484 237.032 204.91C237.146 204.336 237.087 203.741 236.863 203.2C236.64 202.66 236.26 202.197 235.774 201.872C235.287 201.547 234.715 201.374 234.13 201.374C233.345 201.374 232.593 201.685 232.038 202.24C231.483 202.795 231.171 203.548 231.171 204.332Z" fill="#263238"/>
<path opacity="0.3" d="M232.958 204.332C232.958 204.559 233.025 204.782 233.152 204.971C233.278 205.16 233.457 205.307 233.667 205.394C233.877 205.481 234.108 205.503 234.331 205.459C234.554 205.415 234.759 205.305 234.919 205.145C235.08 204.984 235.19 204.779 235.234 204.556C235.278 204.333 235.255 204.102 235.169 203.893C235.082 203.683 234.934 203.503 234.745 203.377C234.556 203.251 234.334 203.183 234.107 203.183C233.802 203.183 233.51 203.304 233.295 203.52C233.079 203.735 232.958 204.027 232.958 204.332Z" fill="black"/>
<path d="M234.13 204.332L231.171 203.218C231.321 202.642 231.64 202.125 232.088 201.733C232.536 201.342 233.091 201.094 233.682 201.023C234.275 200.927 234.883 201.006 235.431 201.251C235.979 201.496 236.444 201.896 236.767 202.402L234.13 204.332Z" fill="#263238"/>
<path opacity="0.3" d="M234.13 204.332L231.171 203.218C231.321 202.642 231.64 202.125 232.088 201.733C232.536 201.342 233.091 201.094 233.682 201.023C234.275 200.927 234.883 201.006 235.431 201.251C235.979 201.496 236.444 201.896 236.767 202.402L234.13 204.332Z" fill="white"/>
<path d="M236.508 196.772H232.297V200.983H236.508V196.772Z" fill="#263238"/>
<path opacity="0.3" d="M236.508 196.772H232.297V200.983H236.508V196.772Z" fill="white"/>
<path d="M246.258 204.332C246.258 204.918 246.431 205.49 246.756 205.976C247.082 206.463 247.544 206.842 248.084 207.066C248.625 207.29 249.22 207.348 249.794 207.234C250.368 207.12 250.895 206.838 251.309 206.424C251.722 206.011 252.004 205.484 252.118 204.91C252.232 204.336 252.174 203.741 251.95 203.2C251.726 202.66 251.347 202.197 250.86 201.872C250.374 201.547 249.802 201.374 249.216 201.374C248.432 201.374 247.679 201.685 247.124 202.24C246.57 202.795 246.258 203.548 246.258 204.332Z" fill="#263238"/>
<path opacity="0.3" d="M248.044 204.332C248.044 204.559 248.112 204.782 248.238 204.971C248.364 205.16 248.544 205.307 248.754 205.394C248.964 205.481 249.195 205.503 249.418 205.459C249.64 205.415 249.845 205.305 250.006 205.145C250.167 204.984 250.276 204.779 250.32 204.556C250.365 204.333 250.342 204.102 250.255 203.893C250.168 203.683 250.021 203.503 249.832 203.377C249.643 203.251 249.421 203.183 249.193 203.183C248.889 203.183 248.596 203.304 248.381 203.52C248.165 203.735 248.044 204.027 248.044 204.332Z" fill="black"/>
<path d="M249.216 204.332L246.258 203.218C246.407 202.642 246.727 202.125 247.174 201.733C247.622 201.342 248.178 201.094 248.768 201.023C249.361 200.927 249.969 201.006 250.517 201.251C251.066 201.496 251.53 201.896 251.853 202.402L249.216 204.332Z" fill="#263238"/>
<path opacity="0.3" d="M249.216 204.332L246.258 203.218C246.407 202.642 246.727 202.125 247.174 201.733C247.622 201.342 248.178 201.094 248.768 201.023C249.361 200.927 249.969 201.006 250.517 201.251C251.066 201.496 251.53 201.896 251.853 202.402L249.216 204.332Z" fill="white"/>
<path d="M251.118 196.841H246.97V200.989H251.118V196.841Z" fill="#263238"/>
<path opacity="0.3" d="M251.118 196.841H246.97V200.989H251.118V196.841Z" fill="white"/>
<path d="M101.446 114.746H123.334V115.63C123.334 116.544 122.971 117.421 122.324 118.068C121.678 118.714 120.801 119.077 119.887 119.077H104.87C103.956 119.077 103.079 118.714 102.432 118.068C101.786 117.421 101.423 116.544 101.423 115.63V114.746H101.446Z" fill="#666CCC"/>
<path opacity="0.3" d="M101.446 114.746H123.334V115.63C123.334 116.544 122.971 117.421 122.324 118.068C121.678 118.714 120.801 119.077 119.887 119.077H104.87C103.956 119.077 103.079 118.714 102.432 118.068C101.786 117.421 101.423 116.544 101.423 115.63V114.746H101.446Z" fill="white"/>
<path d="M116.463 119.054H108.316V198.765H116.463V119.054Z" fill="#263238"/>
<path opacity="0.5" d="M116.463 119.054H108.316V198.765H116.463V119.054Z" fill="white"/>
<path d="M131.796 198.765H92.9775V202.252H131.796V198.765Z" fill="#263238"/>
<path opacity="0.3" d="M131.796 198.765H92.9775V202.252H131.796V198.765Z" fill="white"/>
<path d="M131.801 208.416C133.502 208.416 134.881 207.038 134.881 205.337C134.881 203.636 133.502 202.258 131.801 202.258C130.101 202.258 128.722 203.636 128.722 205.337C128.722 207.038 130.101 208.416 131.801 208.416Z" fill="#263238"/>
<path opacity="0.3" d="M131.802 206.865C132.646 206.865 133.33 206.181 133.33 205.337C133.33 204.493 132.646 203.809 131.802 203.809C130.958 203.809 130.273 204.493 130.273 205.337C130.273 206.181 130.958 206.865 131.802 206.865Z" fill="black"/>
<path d="M128.722 203.792L130.314 205.337H131.801V202.252H128.722V203.792Z" fill="#263238"/>
<path opacity="0.2" d="M128.722 203.792L130.314 205.337H131.801V202.252H128.722V203.792Z" fill="white"/>
<path d="M92.9777 208.416C94.6783 208.416 96.057 207.038 96.057 205.337C96.057 203.636 94.6783 202.258 92.9777 202.258C91.2771 202.258 89.8984 203.636 89.8984 205.337C89.8984 207.038 91.2771 208.416 92.9777 208.416Z" fill="#263238"/>
<path opacity="0.3" d="M92.9774 206.865C93.8213 206.865 94.5055 206.181 94.5055 205.337C94.5055 204.493 93.8213 203.809 92.9774 203.809C92.1334 203.809 91.4492 204.493 91.4492 205.337C91.4492 206.181 92.1334 206.865 92.9774 206.865Z" fill="black"/>
<path d="M96.0626 203.792L94.4655 205.337H92.9775V202.252H96.0626V203.792Z" fill="#263238"/>
<path opacity="0.2" d="M96.0626 203.792L94.4655 205.337H92.9775V202.252H96.0626V203.792Z" fill="white"/>
<path d="M122.685 96.7526H102.089C99.8524 96.7526 98.0391 98.5659 98.0391 100.803V110.695C98.0391 112.932 99.8524 114.746 102.089 114.746H122.685C124.922 114.746 126.735 112.932 126.735 110.695V100.803C126.735 98.5659 124.922 96.7526 122.685 96.7526Z" fill="#666CCC"/>
<path opacity="0.5" d="M122.685 96.7526H102.089C99.8524 96.7526 98.0391 98.5659 98.0391 100.803V110.695C98.0391 112.932 99.8524 114.746 102.089 114.746H122.685C124.922 114.746 126.735 112.932 126.735 110.695V100.803C126.735 98.5659 124.922 96.7526 122.685 96.7526Z" fill="white"/>
<path d="M118.203 98.4244H101.485V110.385H118.203V98.4244Z" fill="#E0E0E0"/>
<path d="M124.799 112.844C125.63 112.844 126.304 112.17 126.304 111.339C126.304 110.507 125.63 109.834 124.799 109.834C123.967 109.834 123.293 110.507 123.293 111.339C123.293 112.17 123.967 112.844 124.799 112.844Z" fill="#263238"/>
<path d="M125.057 107.852C125.746 107.852 126.304 107.62 126.304 107.335C126.304 107.049 125.746 106.818 125.057 106.818C124.369 106.818 123.811 107.049 123.811 107.335C123.811 107.62 124.369 107.852 125.057 107.852Z" fill="#263238"/>
<path d="M125.057 106.341C125.746 106.341 126.304 106.109 126.304 105.824C126.304 105.538 125.746 105.307 125.057 105.307C124.369 105.307 123.811 105.538 123.811 105.824C123.811 106.109 124.369 106.341 125.057 106.341Z" fill="#263238"/>
<path d="M125.057 104.836C125.746 104.836 126.304 104.604 126.304 104.319C126.304 104.033 125.746 103.802 125.057 103.802C124.369 103.802 123.811 104.033 123.811 104.319C123.811 104.604 124.369 104.836 125.057 104.836Z" fill="#263238"/>
<path d="M125.057 103.325C125.746 103.325 126.304 103.093 126.304 102.808C126.304 102.522 125.746 102.291 125.057 102.291C124.369 102.291 123.811 102.522 123.811 102.808C123.811 103.093 124.369 103.325 125.057 103.325Z" fill="#263238"/>
<path d="M125.057 101.819C125.746 101.819 126.304 101.588 126.304 101.302C126.304 101.017 125.746 100.785 125.057 100.785C124.369 100.785 123.811 101.017 123.811 101.302C123.811 101.588 124.369 101.819 125.057 101.819Z" fill="#263238"/>
<path d="M125.057 100.308C125.746 100.308 126.304 100.077 126.304 99.7914C126.304 99.5059 125.746 99.2744 125.057 99.2744C124.369 99.2744 123.811 99.5059 123.811 99.7914C123.811 100.077 124.369 100.308 125.057 100.308Z" fill="#263238"/>
<path d="M120.961 114.315C121.225 114.315 121.438 114.101 121.438 113.838C121.438 113.575 121.225 113.361 120.961 113.361C120.698 113.361 120.484 113.575 120.484 113.838C120.484 114.101 120.698 114.315 120.961 114.315Z" fill="#263238"/>
<path d="M118.893 114.315C119.156 114.315 119.37 114.101 119.37 113.838C119.37 113.575 119.156 113.361 118.893 113.361C118.629 113.361 118.416 113.575 118.416 113.838C118.416 114.101 118.629 114.315 118.893 114.315Z" fill="#263238"/>
<path d="M118.353 95.9597H101.337C99.5154 95.9597 98.0391 97.4361 98.0391 99.2573V109.552C98.0391 111.373 99.5154 112.85 101.337 112.85H118.353C120.174 112.85 121.651 111.373 121.651 109.552V99.2573C121.651 97.4361 120.174 95.9597 118.353 95.9597Z" fill="#666CCC"/>
<path opacity="0.2" d="M118.353 95.9597H101.337C99.5154 95.9597 98.0391 97.4361 98.0391 99.2573V109.552C98.0391 111.373 99.5154 112.85 101.337 112.85H118.353C120.174 112.85 121.651 111.373 121.651 109.552V99.2573C121.651 97.4361 120.174 95.9597 118.353 95.9597Z" fill="white"/>
<path d="M119.381 98.5679H100.423V110.678H119.381V98.5679Z" fill="#263238"/>
<path opacity="0.7" d="M119.381 98.5679H100.423V110.678H119.381V98.5679Z" fill="white"/>
<path d="M106.035 105.491C105.908 105.406 105.804 105.289 105.737 105.152C105.659 104.987 105.622 104.806 105.628 104.623C105.622 104.441 105.659 104.26 105.737 104.095C105.803 103.956 105.906 103.839 106.035 103.756C106.17 103.679 106.323 103.639 106.478 103.641C106.633 103.639 106.786 103.678 106.92 103.756C107.051 103.837 107.155 103.955 107.219 104.095C107.297 104.26 107.334 104.441 107.328 104.623C107.334 104.806 107.297 104.987 107.219 105.152C107.153 105.291 107.05 105.408 106.92 105.491C106.786 105.568 106.633 105.608 106.478 105.606C106.323 105.607 106.17 105.568 106.035 105.491ZM106.69 104.623C106.69 104.307 106.621 104.146 106.478 104.146C106.334 104.146 106.265 104.307 106.265 104.623C106.265 104.939 106.334 105.1 106.478 105.1C106.621 105.1 106.69 104.939 106.69 104.623Z" fill="#666CCC"/>
<path d="M107.897 105.491C107.766 105.408 107.661 105.291 107.593 105.152C107.519 104.986 107.481 104.805 107.484 104.623C107.481 104.441 107.518 104.261 107.593 104.095C107.659 103.954 107.765 103.836 107.897 103.756C108.03 103.678 108.181 103.639 108.334 103.641C108.489 103.639 108.642 103.678 108.776 103.756C108.909 103.836 109.015 103.954 109.081 104.095C109.156 104.261 109.193 104.441 109.19 104.623C109.192 104.805 109.155 104.986 109.081 105.152C109.013 105.291 108.907 105.408 108.776 105.491C108.642 105.568 108.489 105.608 108.334 105.606C108.181 105.608 108.03 105.568 107.897 105.491ZM108.552 104.623C108.552 104.307 108.477 104.146 108.334 104.146C108.19 104.146 108.121 104.307 108.121 104.623C108.121 104.939 108.196 105.1 108.334 105.1C108.472 105.1 108.552 104.939 108.552 104.623Z" fill="#666CCC"/>
<path d="M106.26 109.001C106.129 108.92 106.025 108.802 105.961 108.662C105.883 108.497 105.846 108.315 105.852 108.133C105.847 107.953 105.884 107.774 105.961 107.61C106.023 107.469 106.128 107.351 106.26 107.271C106.392 107.189 106.546 107.148 106.702 107.151C106.858 107.148 107.011 107.19 107.144 107.271C107.275 107.353 107.379 107.471 107.443 107.61C107.52 107.774 107.557 107.953 107.552 108.133C107.558 108.315 107.521 108.497 107.443 108.662C107.379 108.803 107.274 108.921 107.142 109.002C107.01 109.083 106.857 109.123 106.702 109.116C106.547 109.12 106.393 109.081 106.26 109.001ZM106.915 108.133C106.915 107.817 106.846 107.662 106.702 107.662C106.558 107.662 106.484 107.817 106.484 108.133C106.484 108.449 106.558 108.61 106.702 108.61C106.846 108.61 106.915 108.449 106.915 108.133Z" fill="#666CCC"/>
<path d="M108.116 109.001C107.986 108.918 107.883 108.8 107.817 108.662C107.739 108.497 107.702 108.315 107.708 108.133C107.702 107.953 107.74 107.774 107.817 107.61C107.881 107.471 107.985 107.353 108.116 107.271C108.249 107.19 108.402 107.148 108.558 107.151C108.714 107.148 108.868 107.189 109 107.271C109.132 107.351 109.237 107.469 109.299 107.61C109.376 107.774 109.413 107.953 109.408 108.133C109.414 108.315 109.377 108.497 109.299 108.662C109.235 108.802 109.131 108.92 109 109.001C108.867 109.081 108.713 109.12 108.558 109.116C108.403 109.12 108.249 109.08 108.116 109.001ZM108.759 108.133C108.759 107.817 108.684 107.662 108.541 107.662C108.397 107.662 108.328 107.817 108.328 108.133C108.328 108.449 108.397 108.61 108.541 108.61C108.684 108.61 108.759 108.449 108.759 108.133Z" fill="#666CCC"/>
<path d="M110.965 109.001C110.833 108.92 110.727 108.802 110.661 108.662C110.586 108.496 110.548 108.315 110.551 108.133C110.549 107.953 110.586 107.774 110.661 107.61C110.725 107.469 110.831 107.351 110.965 107.271C111.096 107.19 111.248 107.148 111.402 107.151C111.558 107.148 111.711 107.189 111.844 107.271C111.978 107.351 112.084 107.469 112.149 107.61C112.223 107.774 112.261 107.953 112.258 108.133C112.261 108.315 112.223 108.496 112.149 108.662C112.082 108.802 111.977 108.92 111.844 109.001C111.711 109.081 111.557 109.12 111.402 109.116C111.248 109.121 111.096 109.081 110.965 109.001ZM111.631 108.133C111.631 107.817 111.557 107.662 111.413 107.662C111.27 107.662 111.201 107.817 111.201 108.133C111.201 108.449 111.27 108.61 111.413 108.61C111.557 108.61 111.631 108.449 111.631 108.133Z" fill="#666CCC"/>
<path d="M112.82 109.001C112.689 108.92 112.585 108.802 112.521 108.662C112.444 108.497 112.406 108.315 112.412 108.133C112.407 107.953 112.444 107.774 112.521 107.61C112.584 107.469 112.688 107.351 112.82 107.271C112.953 107.189 113.107 107.148 113.263 107.151C113.418 107.148 113.572 107.19 113.705 107.271C113.835 107.353 113.939 107.471 114.004 107.61C114.081 107.774 114.118 107.953 114.113 108.133C114.119 108.315 114.081 108.497 114.004 108.662C113.94 108.803 113.835 108.921 113.703 109.002C113.571 109.083 113.417 109.123 113.263 109.116C113.107 109.12 112.954 109.081 112.82 109.001ZM113.475 108.133C113.475 107.817 113.406 107.662 113.263 107.662C113.119 107.662 113.044 107.817 113.044 108.133C113.044 108.449 113.119 108.61 113.263 108.61C113.406 108.61 113.475 108.449 113.475 108.133Z" fill="#666CCC"/>
<path d="M111.275 105.491C111.144 105.408 111.039 105.291 110.971 105.152C110.898 104.985 110.863 104.805 110.867 104.623C110.862 104.442 110.898 104.261 110.971 104.095C111.037 103.954 111.143 103.836 111.275 103.756C111.409 103.678 111.562 103.639 111.717 103.641C111.871 103.639 112.022 103.678 112.154 103.756C112.286 103.836 112.392 103.954 112.458 104.095C112.533 104.261 112.571 104.441 112.568 104.623C112.57 104.805 112.533 104.986 112.458 105.152C112.39 105.291 112.285 105.408 112.154 105.491C112.022 105.568 111.871 105.608 111.717 105.606C111.562 105.608 111.409 105.568 111.275 105.491ZM111.93 104.623C111.93 104.307 111.861 104.146 111.717 104.146C111.574 104.146 111.499 104.307 111.499 104.623C111.499 104.939 111.574 105.1 111.717 105.1C111.861 105.1 111.93 104.939 111.93 104.623Z" fill="#666CCC"/>
<path d="M113.131 105.49C113.001 105.408 112.898 105.29 112.832 105.151C112.754 104.986 112.717 104.805 112.723 104.623C112.717 104.441 112.754 104.259 112.832 104.094C112.896 103.954 113 103.837 113.131 103.755C113.266 103.68 113.418 103.64 113.573 103.64C113.728 103.64 113.88 103.68 114.015 103.755C114.146 103.837 114.25 103.954 114.314 104.094C114.392 104.259 114.429 104.441 114.423 104.623C114.429 104.805 114.392 104.986 114.314 105.151C114.248 105.29 114.145 105.408 114.015 105.49C113.88 105.566 113.728 105.606 113.573 105.606C113.418 105.606 113.266 105.566 113.131 105.49ZM113.786 104.623C113.786 104.307 113.717 104.146 113.573 104.146C113.429 104.146 113.36 104.307 113.36 104.623C113.36 104.939 113.429 105.1 113.573 105.1C113.717 105.1 113.786 104.939 113.786 104.623Z" fill="#666CCC"/>
<path d="M110.069 107.501H110.339L109.896 108.765H109.626L110.069 107.501Z" fill="#666CCC"/>
<path d="M111.459 100.94H101.072V101.073H111.459V100.94Z" fill="#666CCC"/>
<path d="M112.223 102.13V100.067H112.125V102.13V102.233H112.223H118.525V102.13H112.223Z" fill="#666CCC"/>
<path d="M114.113 93.5469H106.875C106.532 93.5469 106.203 93.4107 105.961 93.1683C105.718 92.9259 105.582 92.5971 105.582 92.2543C105.582 91.9115 105.718 91.5827 105.961 91.3403C106.203 91.0979 106.532 90.9617 106.875 90.9617H114.113C114.456 90.9617 114.785 91.0979 115.027 91.3403C115.27 91.5827 115.406 91.9115 115.406 92.2543C115.406 92.5971 115.27 92.9259 115.027 93.1683C114.785 93.4107 114.456 93.5469 114.113 93.5469Z" fill="#666CCC"/>
<path opacity="0.1" d="M114.113 93.5469H106.875C106.532 93.5469 106.203 93.4107 105.961 93.1683C105.718 92.9259 105.582 92.5971 105.582 92.2543C105.582 91.9115 105.718 91.5827 105.961 91.3403C106.203 91.0979 106.532 90.9617 106.875 90.9617H114.113C114.456 90.9617 114.785 91.0979 115.027 91.3403C115.27 91.5827 115.406 91.9115 115.406 92.2543C115.406 92.5971 115.27 92.9259 115.027 93.1683C114.785 93.4107 114.456 93.5469 114.113 93.5469Z" fill="white"/>
<path d="M105.581 91.588V95.9828H104.547V92.622C104.547 92.3478 104.656 92.0848 104.85 91.8908C105.044 91.6969 105.307 91.588 105.581 91.588Z" fill="#263238"/>
<path opacity="0.3" d="M105.581 91.588V95.9828H104.547V92.622C104.547 92.3478 104.656 92.0848 104.85 91.8908C105.044 91.6969 105.307 91.588 105.581 91.588Z" fill="white"/>
<path d="M115.406 91.588V95.9828H116.44V92.622C116.44 92.4862 116.413 92.3518 116.361 92.2263C116.309 92.1009 116.233 91.9869 116.137 91.8908C116.041 91.7948 115.927 91.7186 115.801 91.6667C115.676 91.6147 115.542 91.588 115.406 91.588Z" fill="#263238"/>
<path opacity="0.3" d="M115.406 91.588V95.9828H116.44V92.622C116.44 92.4862 116.413 92.3518 116.361 92.2263C116.309 92.1009 116.233 91.9869 116.137 91.8908C116.041 91.7948 115.927 91.7186 115.801 91.6667C115.676 91.6147 115.542 91.588 115.406 91.588Z" fill="white"/>
<path d="M112.43 154.748H53.5786V162.331H112.43V154.748Z" fill="#263238"/>
<path opacity="0.2" d="M112.43 154.748H53.5786V162.331H112.43V154.748Z" fill="white"/>
<path d="M47.0177 208.147C50.6411 208.147 53.5784 205.209 53.5784 201.586C53.5784 197.963 50.6411 195.025 47.0177 195.025C43.3944 195.025 40.457 197.963 40.457 201.586C40.457 205.209 43.3944 208.147 47.0177 208.147Z" fill="#263238"/>
<path opacity="0.2" d="M50.0628 201.586C50.0628 202.188 49.8842 202.777 49.5496 203.278C49.215 203.778 48.7395 204.169 48.1831 204.399C47.6268 204.629 47.0146 204.69 46.4239 204.572C45.8333 204.455 45.2908 204.165 44.8649 203.739C44.4391 203.313 44.1491 202.771 44.0317 202.18C43.9142 201.589 43.9745 200.977 44.2049 200.421C44.4354 199.864 44.8256 199.389 45.3263 199.054C45.8271 198.72 46.4157 198.541 47.0179 198.541C47.418 198.54 47.8143 198.619 48.184 198.771C48.5538 198.924 48.8897 199.148 49.1726 199.431C49.4555 199.714 49.6798 200.05 49.8325 200.42C49.9853 200.79 50.0635 201.186 50.0628 201.586Z" fill="black"/>
<path d="M190.93 160.897L47.231 183.323L47.8599 187.353L191.559 164.927L190.93 160.897Z" fill="#263238"/>
<path opacity="0.3" d="M190.93 160.897L47.231 183.323L47.8599 187.353L191.559 164.927L190.93 160.897Z" fill="white"/>
<path d="M47.2313 164.928L190.93 187.353L191.559 183.323L47.8603 160.898L47.2313 164.928Z" fill="#263238"/>
<path opacity="0.2" d="M47.2313 164.928L190.93 187.353L191.559 183.323L47.8603 160.898L47.2313 164.928Z" fill="white"/>
<path d="M97.6309 141.276L50.1607 125.288C49.6411 125.114 49.0739 125.154 48.5831 125.397C48.0923 125.64 47.7177 126.068 47.541 126.586L44.7777 134.796C44.6651 135.129 44.6194 135.482 44.6434 135.834C44.6674 136.185 44.7605 136.528 44.9174 136.844C45.0743 137.159 45.2919 137.441 45.5578 137.672C45.8237 137.903 46.1325 138.079 46.4667 138.191L93.7416 154.685H191.078C191.629 154.685 192.158 154.465 192.548 154.075C192.938 153.685 193.157 153.156 193.157 152.605V142.948C193.157 142.728 193.114 142.51 193.029 142.307C192.945 142.103 192.821 141.919 192.666 141.764C192.51 141.608 192.325 141.485 192.121 141.402C191.918 141.318 191.7 141.275 191.48 141.276H97.6309Z" fill="#263238"/>
<path d="M40.5492 162.331H37.4182C36.8351 162.328 36.2769 162.094 35.8657 161.681C35.4545 161.268 35.2236 160.708 35.2236 160.125V130.252C35.2236 129.666 35.4561 129.105 35.8698 128.692C36.2835 128.278 36.8446 128.046 37.4297 128.046H38.3546C38.8902 128.045 39.4076 128.24 39.8104 128.593C40.2131 128.946 40.4737 129.433 40.5434 129.964L42.7495 146.814C42.7554 146.91 42.7554 147.006 42.7495 147.101V160.125C42.7495 160.709 42.5178 161.269 42.1054 161.683C41.6929 162.097 41.1332 162.33 40.5492 162.331Z" fill="#666CCC"/>
<path opacity="0.5" d="M40.5492 162.331H37.4182C36.8351 162.328 36.2769 162.094 35.8657 161.681C35.4545 161.268 35.2236 160.708 35.2236 160.125V130.252C35.2236 129.666 35.4561 129.105 35.8698 128.692C36.2835 128.278 36.8446 128.046 37.4297 128.046H38.3546C38.8902 128.045 39.4076 128.24 39.8104 128.593C40.2131 128.946 40.4737 129.433 40.5434 129.964L42.7495 146.814C42.7554 146.91 42.7554 147.006 42.7495 147.101V160.125C42.7495 160.709 42.5178 161.269 42.1054 161.683C41.6929 162.097 41.1332 162.33 40.5492 162.331Z" fill="white"/>
<path d="M195.57 160.039H198.701C199.286 160.039 199.847 159.806 200.261 159.393C200.675 158.979 200.907 158.418 200.907 157.833V127.959C200.907 127.374 200.675 126.813 200.261 126.399C199.847 125.986 199.286 125.753 198.701 125.753H197.805C197.27 125.754 196.754 125.949 196.353 126.302C195.951 126.655 195.691 127.142 195.622 127.672L193.41 144.522C193.404 144.618 193.404 144.713 193.41 144.809V157.816C193.405 158.396 193.629 158.954 194.034 159.371C194.438 159.787 194.99 160.027 195.57 160.039Z" fill="#666CCC"/>
<path opacity="0.5" d="M195.57 160.039H198.701C199.286 160.039 199.847 159.806 200.261 159.393C200.675 158.979 200.907 158.418 200.907 157.833V127.959C200.907 127.374 200.675 126.813 200.261 126.399C199.847 125.986 199.286 125.753 198.701 125.753H197.805C197.27 125.754 196.754 125.949 196.353 126.302C195.951 126.655 195.691 127.142 195.622 127.672L193.41 144.522C193.404 144.618 193.404 144.713 193.41 144.809V157.816C193.405 158.396 193.629 158.954 194.034 159.371C194.438 159.787 194.99 160.027 195.57 160.039Z" fill="white"/>
<path d="M101.606 154.748H42.7554V162.331H101.606V154.748Z" fill="#666CCC"/>
<path opacity="0.4" d="M101.606 154.748H42.7554V162.331H101.606V154.748Z" fill="white"/>
<path d="M193.364 154.748H102.508V162.331H193.364V154.748Z" fill="#666CCC"/>
<path opacity="0.4" d="M193.364 154.748H102.508V162.331H193.364V154.748Z" fill="white"/>
<path d="M193.157 185.902H46.5469V193.566H193.157V185.902Z" fill="#666CCC"/>
<path opacity="0.4" d="M193.157 185.902H46.5469V193.566H193.157V185.902Z" fill="white"/>
<path d="M34.9366 115.717L28.9389 131.917C28.3264 133.587 28.4008 135.432 29.146 137.047C29.8912 138.663 31.2463 139.917 32.9143 140.535L91.5239 162.25C94.293 163.273 111.057 154.88 106.363 149.56C101.669 144.24 88.6515 128.43 79.0919 124.908L43.5712 111.758C41.9012 111.14 40.0539 111.209 38.4349 111.951C36.816 112.693 35.5578 114.047 34.9366 115.717ZM78.0234 132.446C78.1625 132.066 78.378 131.719 78.6567 131.426C78.9353 131.134 79.2711 130.901 79.6432 130.743C80.0154 130.585 80.416 130.506 80.8202 130.509C81.2244 130.512 81.6236 130.599 81.9931 130.762C86.7097 132.882 91.0012 136.559 95.0168 141.264C95.4417 141.763 95.6887 142.39 95.7192 143.044C95.7496 143.699 95.5617 144.346 95.185 144.882C94.8083 145.418 94.2641 145.815 93.6379 146.008C93.0116 146.202 92.3388 146.182 91.725 145.952L78.0521 140.891C77.3203 140.614 76.7281 140.058 76.405 139.345C76.082 138.632 76.0546 137.821 76.3287 137.088L78.0234 132.446ZM38.958 118.98C39.1192 118.543 39.3649 118.143 39.6808 117.802C39.9968 117.461 40.377 117.185 40.7996 116.991C41.2221 116.797 41.6788 116.688 42.1436 116.67C42.6083 116.653 43.0719 116.727 43.508 116.889L64.7986 124.771C65.5064 125.033 66.1115 125.516 66.525 126.148C66.9385 126.779 67.1389 127.527 67.0966 128.281L66.9242 131.504C66.8942 132.058 66.7343 132.597 66.4575 133.078C66.1806 133.559 65.7946 133.968 65.3304 134.272C64.8663 134.576 64.3372 134.767 63.7857 134.829C63.2343 134.891 62.676 134.822 62.156 134.629L39.9921 126.431C39.5559 126.27 39.1557 126.024 38.8145 125.708C38.4732 125.392 38.1976 125.012 38.0034 124.589C37.8092 124.167 37.7002 123.71 37.6826 123.245C37.665 122.781 37.7392 122.317 37.9009 121.881L38.958 118.98Z" fill="#666CCC"/>
<path opacity="0.7" d="M34.9366 115.717L28.9389 131.917C28.3264 133.587 28.4008 135.432 29.146 137.047C29.8912 138.663 31.2463 139.917 32.9143 140.535L91.5239 162.25C94.293 163.273 111.057 154.88 106.363 149.56C101.669 144.24 88.6515 128.43 79.0919 124.908L43.5712 111.758C41.9012 111.14 40.0539 111.209 38.4349 111.951C36.816 112.693 35.5578 114.047 34.9366 115.717ZM78.0234 132.446C78.1625 132.066 78.378 131.719 78.6567 131.426C78.9353 131.134 79.2711 130.901 79.6432 130.743C80.0154 130.585 80.416 130.506 80.8202 130.509C81.2244 130.512 81.6236 130.599 81.9931 130.762C86.7097 132.882 91.0012 136.559 95.0168 141.264C95.4417 141.763 95.6887 142.39 95.7192 143.044C95.7496 143.699 95.5617 144.346 95.185 144.882C94.8083 145.418 94.2641 145.815 93.6379 146.008C93.0116 146.202 92.3388 146.182 91.725 145.952L78.0521 140.891C77.3203 140.614 76.7281 140.058 76.405 139.345C76.082 138.632 76.0546 137.821 76.3287 137.088L78.0234 132.446ZM38.958 118.98C39.1192 118.543 39.3649 118.143 39.6808 117.802C39.9968 117.461 40.377 117.185 40.7996 116.991C41.2221 116.797 41.6788 116.688 42.1436 116.67C42.6083 116.653 43.0719 116.727 43.508 116.889L64.7986 124.771C65.5064 125.033 66.1115 125.516 66.525 126.148C66.9385 126.779 67.1389 127.527 67.0966 128.281L66.9242 131.504C66.8942 132.058 66.7343 132.597 66.4575 133.078C66.1806 133.559 65.7946 133.968 65.3304 134.272C64.8663 134.576 64.3372 134.767 63.7857 134.829C63.2343 134.891 62.676 134.822 62.156 134.629L39.9921 126.431C39.5559 126.27 39.1557 126.024 38.8145 125.708C38.4732 125.392 38.1976 125.012 38.0034 124.589C37.8092 124.167 37.7002 123.71 37.6826 123.245C37.665 122.781 37.7392 122.317 37.9009 121.881L38.958 118.98Z" fill="white"/>
<path d="M49.0459 181.008H50.5338C51.1966 181.008 51.8323 181.271 52.3009 181.74C52.7696 182.208 53.0329 182.844 53.0329 183.507V185.903H46.5469V183.507C46.5469 182.844 46.8102 182.208 47.2788 181.74C47.7475 181.271 48.3831 181.008 49.0459 181.008Z" fill="#263238"/>
<path opacity="0.1" d="M49.0459 181.008H50.5338C51.1966 181.008 51.8323 181.271 52.3009 181.74C52.7696 182.208 53.0329 182.844 53.0329 183.507V185.903H46.5469V183.507C46.5469 182.844 46.8102 182.208 47.2788 181.74C47.7475 181.271 48.3831 181.008 49.0459 181.008Z" fill="white"/>
<path d="M50.5283 167.225H49.0404C48.3776 167.225 47.7419 166.962 47.2733 166.494C46.8046 166.025 46.5413 165.389 46.5413 164.726V162.331H53.0273V164.726C53.0273 165.389 52.7641 166.025 52.2954 166.494C51.8267 166.962 51.1911 167.225 50.5283 167.225Z" fill="#263238"/>
<path opacity="0.1" d="M50.5283 167.225H49.0404C48.3776 167.225 47.7419 166.962 47.2733 166.494C46.8046 166.025 46.5413 165.389 46.5413 164.726V162.331H53.0273V164.726C53.0273 165.389 52.7641 166.025 52.2954 166.494C51.8267 166.962 51.1911 167.225 50.5283 167.225Z" fill="white"/>
<path d="M190.888 167.226H189.383C188.72 167.226 188.084 166.962 187.616 166.494C187.147 166.025 186.884 165.39 186.884 164.727V162.331H193.404V164.727C193.404 165.056 193.339 165.383 193.212 165.687C193.086 165.991 192.9 166.268 192.666 166.5C192.432 166.732 192.155 166.916 191.85 167.041C191.544 167.165 191.218 167.228 190.888 167.226Z" fill="#263238"/>
<path opacity="0.1" d="M190.888 167.226H189.383C188.72 167.226 188.084 166.962 187.616 166.494C187.147 166.025 186.884 165.39 186.884 164.727V162.331H193.404V164.727C193.404 165.056 193.339 165.383 193.212 165.687C193.086 165.991 192.9 166.268 192.666 166.5C192.432 166.732 192.155 166.916 191.85 167.041C191.544 167.165 191.218 167.228 190.888 167.226Z" fill="white"/>
<path d="M189.405 181.008H190.911C191.573 181.008 192.209 181.271 192.678 181.74C193.146 182.208 193.41 182.844 193.41 183.507V185.902H186.889V183.507C186.889 183.177 186.954 182.851 187.081 182.546C187.208 182.242 187.393 181.966 187.627 181.733C187.861 181.501 188.139 181.317 188.444 181.193C188.749 181.068 189.076 181.005 189.405 181.008Z" fill="#263238"/>
<path opacity="0.1" d="M189.405 181.008H190.911C191.573 181.008 192.209 181.271 192.678 181.74C193.146 182.208 193.41 182.844 193.41 183.507V185.902H186.889V183.507C186.889 183.177 186.954 182.851 187.081 182.546C187.208 182.242 187.393 181.966 187.627 181.733C187.861 181.501 188.139 181.317 188.444 181.193C188.749 181.068 189.076 181.005 189.405 181.008Z" fill="white"/>
<path d="M120.206 178.101C122.667 177.085 123.838 174.266 122.821 171.805C121.805 169.344 118.986 168.174 116.525 169.19C114.065 170.206 112.894 173.025 113.91 175.486C114.927 177.946 117.745 179.117 120.206 178.101Z" fill="#263238"/>
<path opacity="0.1" d="M120.206 178.101C122.667 177.085 123.838 174.266 122.821 171.805C121.805 169.344 118.986 168.174 116.525 169.19C114.065 170.206 112.894 173.025 113.91 175.486C114.927 177.946 117.745 179.117 120.206 178.101Z" fill="white"/>
<path d="M185.166 155.19H147.29C137.127 155.19 119.427 165.491 113.188 168.851C106.949 172.212 119.748 185.902 122.696 185.902H185.166C186.049 185.903 186.924 185.73 187.74 185.392C188.556 185.055 189.298 184.56 189.922 183.936C190.547 183.311 191.043 182.57 191.381 181.754C191.719 180.938 191.893 180.064 191.893 179.181V161.912C191.893 161.028 191.719 160.154 191.381 159.338C191.043 158.522 190.547 157.781 189.922 157.157C189.298 156.532 188.556 156.037 187.74 155.7C186.924 155.363 186.049 155.189 185.166 155.19ZM145.658 167.588C145.656 168.373 145.343 169.125 144.788 169.68C144.232 170.235 143.479 170.546 142.694 170.546H128.113C127.46 170.545 126.825 170.328 126.308 169.929C125.791 169.53 125.42 168.971 125.253 168.34C125.086 167.708 125.132 167.04 125.385 166.437C125.637 165.835 126.081 165.332 126.648 165.008C132.048 161.992 137.351 160.033 142.504 159.683C142.908 159.657 143.312 159.714 143.693 159.85C144.074 159.987 144.423 160.2 144.718 160.477C145.013 160.754 145.248 161.088 145.409 161.459C145.569 161.831 145.652 162.231 145.652 162.635L145.658 167.588ZM186.97 166.651C186.97 167.116 186.879 167.577 186.702 168.007C186.524 168.437 186.264 168.828 185.935 169.157C185.606 169.486 185.216 169.748 184.786 169.926C184.357 170.104 183.896 170.196 183.431 170.196H159.767C159.212 170.196 158.665 170.065 158.169 169.814C157.673 169.564 157.244 169.2 156.914 168.753C156.585 168.305 156.366 167.787 156.273 167.24C156.181 166.692 156.219 166.13 156.384 165.6L157.337 162.521C157.561 161.797 158.01 161.165 158.618 160.715C159.227 160.265 159.964 160.022 160.721 160.022H183.442C183.907 160.022 184.368 160.113 184.798 160.291C185.228 160.47 185.618 160.731 185.947 161.06C186.275 161.389 186.536 161.78 186.713 162.21C186.891 162.64 186.982 163.101 186.981 163.566L186.97 166.651Z" fill="#666CCC"/>
<path opacity="0.7" d="M185.166 155.19H147.29C137.127 155.19 119.427 165.491 113.188 168.851C106.949 172.212 119.748 185.902 122.696 185.902H185.166C186.049 185.903 186.924 185.73 187.74 185.392C188.556 185.055 189.298 184.56 189.922 183.936C190.547 183.311 191.043 182.57 191.381 181.754C191.719 180.938 191.893 180.064 191.893 179.181V161.912C191.893 161.028 191.719 160.154 191.381 159.338C191.043 158.522 190.547 157.781 189.922 157.157C189.298 156.532 188.556 156.037 187.74 155.7C186.924 155.363 186.049 155.189 185.166 155.19ZM145.658 167.588C145.656 168.373 145.343 169.125 144.788 169.68C144.232 170.235 143.479 170.546 142.694 170.546H128.113C127.46 170.545 126.825 170.328 126.308 169.929C125.791 169.53 125.42 168.971 125.253 168.34C125.086 167.708 125.132 167.04 125.385 166.437C125.637 165.835 126.081 165.332 126.648 165.008C132.048 161.992 137.351 160.033 142.504 159.683C142.908 159.657 143.312 159.714 143.693 159.85C144.074 159.987 144.423 160.2 144.718 160.477C145.013 160.754 145.248 161.088 145.409 161.459C145.569 161.831 145.652 162.231 145.652 162.635L145.658 167.588ZM186.97 166.651C186.97 167.116 186.879 167.577 186.702 168.007C186.524 168.437 186.264 168.828 185.935 169.157C185.606 169.486 185.216 169.748 184.786 169.926C184.357 170.104 183.896 170.196 183.431 170.196H159.767C159.212 170.196 158.665 170.065 158.169 169.814C157.673 169.564 157.244 169.2 156.914 168.753C156.585 168.305 156.366 167.787 156.273 167.24C156.181 166.692 156.219 166.13 156.384 165.6L157.337 162.521C157.561 161.797 158.01 161.165 158.618 160.715C159.227 160.265 159.964 160.022 160.721 160.022H183.442C183.907 160.022 184.368 160.113 184.798 160.291C185.228 160.47 185.618 160.731 185.947 161.06C186.275 161.389 186.536 161.78 186.713 162.21C186.891 162.64 186.982 163.101 186.981 163.566L186.97 166.651Z" fill="white"/>
<path d="M172.751 153.944H155.264V155.546H172.751V153.944Z" fill="#263238"/>
<path opacity="0.2" d="M172.751 153.944H155.264V155.546H172.751V153.944Z" fill="white"/>
<path d="M67.0083 152.28L50.625 146.165L50.0645 147.666L66.4477 153.782L67.0083 152.28Z" fill="#263238"/>
<path opacity="0.2" d="M67.0083 152.28L50.625 146.165L50.0645 147.666L66.4477 153.782L67.0083 152.28Z" fill="white"/>
<path d="M53.5786 195.835L48.7702 202.431H46.5469V193.566H53.5786V195.835Z" fill="#263238"/>
<path opacity="0.1" d="M53.5786 195.835L48.7702 202.431H46.5469V193.566H53.5786V195.835Z" fill="white"/>
<path d="M192.686 208.147C196.31 208.147 199.247 205.209 199.247 201.586C199.247 197.963 196.31 195.025 192.686 195.025C189.063 195.025 186.125 197.963 186.125 201.586C186.125 205.209 189.063 208.147 192.686 208.147Z" fill="#263238"/>
<path opacity="0.2" d="M189.641 201.586C189.641 202.188 189.82 202.777 190.154 203.278C190.489 203.778 190.964 204.169 191.521 204.399C192.077 204.629 192.689 204.69 193.28 204.572C193.871 204.455 194.413 204.165 194.839 203.739C195.265 203.313 195.555 202.771 195.672 202.18C195.79 201.589 195.729 200.977 195.499 200.421C195.268 199.864 194.878 199.389 194.378 199.054C193.877 198.72 193.288 198.541 192.686 198.541C192.286 198.541 191.89 198.62 191.521 198.773C191.151 198.926 190.816 199.15 190.533 199.433C190.25 199.716 190.026 200.051 189.873 200.421C189.72 200.79 189.641 201.186 189.641 201.586Z" fill="black"/>
<path d="M186.131 195.835L190.939 202.431H193.163V193.566H186.131V195.835Z" fill="#263238"/>
<path opacity="0.1" d="M186.131 195.835L190.939 202.431H193.163V193.566H186.131V195.835Z" fill="white"/>
<path d="M157.153 85.5788C157.217 85.7856 157.326 86.1074 157.423 86.3774L157.728 87.2334C157.94 87.8079 158.17 88.3823 158.417 88.9568C158.896 90.0665 159.433 91.15 160.026 92.2027C161.08 94.1971 162.547 95.9441 164.329 97.3272L164.622 97.5282C164.622 97.5282 164.622 97.5282 164.691 97.5685C165.02 97.5703 165.344 97.4893 165.633 97.3329C166.613 96.8103 167.515 96.1549 168.316 95.3854C169.237 94.5375 170.115 93.644 170.947 92.7083C171.803 91.7718 172.642 90.7607 173.435 89.7841L175.732 91.1629C174.547 93.6839 173.055 96.0494 171.292 98.2062C170.323 99.4046 169.173 100.445 167.885 101.291C167.041 101.838 166.085 102.188 165.087 102.314C164.452 102.38 163.81 102.322 163.197 102.141C162.88 102.05 162.574 101.925 162.284 101.768C162.065 101.653 161.922 101.567 161.738 101.458C160.395 100.652 159.179 99.6512 158.13 98.4876C157.128 97.3936 156.236 96.2045 155.464 94.9373C154.708 93.715 154.04 92.4402 153.465 91.1227C153.184 90.4678 152.891 89.8071 152.667 89.1407C152.546 88.8075 152.425 88.4685 152.316 88.1238C152.207 87.7791 152.104 87.4632 151.989 87.038L157.153 85.5788Z" fill="#CE7A63"/>
<path d="M162.761 93.8857L157.142 98.0795C157.142 98.0795 156.924 97.844 156.568 97.4303L155.586 96.2814C153.402 93.6215 150.214 88.767 150.185 86.3886C150.151 82.844 153.828 82.3212 157.958 85.952C159.739 87.5146 160.67 90.1113 161.577 91.6969C161.876 92.2255 162.152 92.6908 162.324 93.0527L162.761 93.8857Z" fill="#666CCC"/>
<path opacity="0.2" d="M150.15 86.7738C151.42 85.935 152.345 88.1066 154.856 89.945C155.976 90.7607 158.423 96.0977 158.222 97.2755L157.142 98.0798C157.142 98.0798 150.122 90.3069 150.15 86.7738Z" fill="black"/>
<path d="M173.016 90.3525L174.251 86.4172L177.428 88.7439C177.428 88.7439 175.704 92.2253 174.515 91.9094L173.016 90.3525Z" fill="#CE7A63"/>
<path d="M177.583 84.9409L179.369 87.1355L177.416 88.7671L174.239 86.4404L177.583 84.9409Z" fill="#CE7A63"/>
<path d="M168.506 101.274C168.506 101.274 169.454 100.223 168.839 96.5401C168.224 92.8576 167.759 88.164 168.592 87.6814L176.279 83.2406L176.56 96.4826L168.506 101.274Z" fill="#666CCC"/>
<path opacity="0.7" d="M168.506 101.274C168.506 101.274 169.454 100.223 168.839 96.5401C168.224 92.8576 167.759 88.164 168.592 87.6814L176.279 83.2406L176.56 96.4826L168.506 101.274Z" fill="white"/>
<path d="M169.919 101.986L168.994 87.9857C168.987 87.8947 169.005 87.8034 169.046 87.7222C169.088 87.641 169.152 87.573 169.23 87.5261L176.957 82.7233C176.989 82.7032 177.027 82.6919 177.065 82.6907C177.103 82.6895 177.141 82.6983 177.175 82.7164C177.209 82.7344 177.237 82.761 177.257 82.7935C177.277 82.826 177.289 82.8632 177.29 82.9014L177.865 96.5054C177.87 96.5896 177.854 96.6738 177.816 96.7495C177.779 96.8252 177.722 96.8897 177.652 96.9363L170.258 102.153C170.226 102.172 170.19 102.183 170.152 102.185C170.114 102.187 170.077 102.179 170.043 102.162C170.009 102.146 169.98 102.121 169.959 102.09C169.937 102.059 169.923 102.023 169.919 101.986Z" fill="#666CCC"/>
<path d="M173.469 84.6363C173.4 84.4697 173.234 84.2055 172.947 84.3663C172.833 84.4608 172.743 84.5796 172.682 84.7139C172.622 84.8482 172.592 84.9945 172.596 85.1419C172.194 85.3832 171.809 85.6072 171.55 85.7681C171.523 85.7858 171.501 85.8107 171.487 85.8401C171.473 85.8695 171.467 85.9022 171.47 85.9347L171.608 86.8654C171.614 86.9062 171.631 86.9449 171.655 86.978C171.68 87.011 171.713 87.0375 171.75 87.0551C171.788 87.0727 171.829 87.0808 171.87 87.0788C171.911 87.0768 171.952 87.0646 171.987 87.0435L174.584 85.3774C174.68 85.3188 174.757 85.233 174.805 85.1309C174.853 85.0287 174.87 84.9146 174.854 84.8029L174.779 84.0733C174.778 84.0517 174.772 84.0306 174.76 84.0122C174.749 83.9938 174.732 83.9787 174.713 83.9683C174.694 83.958 174.673 83.9526 174.651 83.9529C174.63 83.9532 174.608 83.9591 174.59 83.9699L173.469 84.6363ZM173.079 84.5961C173.176 84.5559 173.222 84.6651 173.239 84.7685L172.924 84.9523C172.941 84.8087 172.981 84.6363 173.102 84.5961H173.079Z" fill="#263238"/>
<path d="M155.746 114.464C155.746 114.464 160.549 143.407 161.968 153.501C163.531 164.554 166.455 204.303 166.455 204.303H159.888C159.888 204.303 154.437 167.289 151.897 156.546C149.14 144.878 143.067 114.464 143.067 114.464H155.746Z" fill="#666CCC"/>
<path opacity="0.2" d="M155.746 114.464C155.746 114.464 160.549 143.407 161.968 153.501C163.531 164.554 166.455 204.303 166.455 204.303H159.888C159.888 204.303 154.437 167.289 151.897 156.546C149.14 144.878 143.067 114.464 143.067 114.464H155.746Z" fill="black"/>
<path opacity="0.2" d="M148.036 126.333C150.495 132.468 150.771 142.895 149.76 147.164C148.255 140.149 146.531 131.756 145.204 125.23C145.687 123.558 146.548 122.61 148.036 126.333Z" fill="black"/>
<path d="M155.746 114.464H136.73C136.598 112.769 136.989 107.243 136.696 100.211C136.515 94.9955 135.882 89.8057 134.806 84.6995C134.72 84.3146 134.633 83.9354 134.542 83.5505C134.542 83.5505 135.507 83.3495 136.891 83.1484C138.04 82.9818 139.471 82.8095 140.884 82.7405C143.574 82.5882 146.271 82.5882 148.961 82.7405C150.208 82.8612 151.42 83.0622 152.408 83.2518C153.649 83.4988 154.379 83.7114 154.379 83.7114C154.379 83.7114 159.038 94.4601 155.746 114.464Z" fill="#666CCC"/>
<path d="M139.465 204.717H143.021L143.481 196.484H139.931L139.465 204.717Z" fill="#CE7A63"/>
<path d="M143.228 204.303H139.206C139.139 204.301 139.073 204.326 139.024 204.373C138.974 204.419 138.945 204.482 138.942 204.55L138.752 207.71C138.752 207.792 138.767 207.874 138.798 207.95C138.829 208.026 138.874 208.096 138.932 208.154C138.989 208.213 139.058 208.26 139.134 208.292C139.209 208.324 139.291 208.341 139.373 208.342C140.763 208.313 141.43 208.233 143.182 208.233C144.268 208.233 148.858 208.347 150.351 208.347C151.845 208.347 151.799 206.871 151.167 206.739C148.335 206.136 144.848 205.314 143.814 204.521C143.646 204.388 143.441 204.312 143.228 204.303Z" fill="#263238"/>
<path d="M165.013 204.303H161.037C161.004 204.302 160.97 204.307 160.938 204.319C160.907 204.33 160.878 204.348 160.853 204.371C160.828 204.394 160.809 204.422 160.795 204.453C160.781 204.483 160.774 204.517 160.773 204.55L160.578 207.71C160.577 207.792 160.592 207.874 160.623 207.95C160.654 208.026 160.699 208.096 160.757 208.154C160.815 208.213 160.883 208.26 160.959 208.292C161.035 208.324 161.116 208.341 161.198 208.342C162.588 208.313 163.255 208.233 165.013 208.233C166.093 208.233 170.683 208.348 172.177 208.348C173.67 208.348 173.63 206.871 172.992 206.739C170.16 206.136 166.673 205.314 165.639 204.521C165.461 204.38 165.24 204.303 165.013 204.303Z" fill="#263238"/>
<path opacity="0.2" d="M139.925 196.484H143.487L143.246 200.73H139.689L139.925 196.484Z" fill="black"/>
<path opacity="0.2" d="M136.696 100.205C136.515 94.9897 135.882 89.7999 134.806 84.6938C136.075 84.5846 138.253 84.6938 138.609 86.7619C138.999 88.9737 138.511 94.1614 136.696 100.205Z" fill="black"/>
<g opacity="0.2">
<path opacity="0.2" d="M139.925 196.484H143.487L143.246 200.73H139.689L139.925 196.484Z" fill="black"/>
</g>
<path d="M148.8 114.464C148.8 114.464 149.139 141.58 148.565 151.737C147.933 162.865 144.452 204.303 144.452 204.303H138.178C138.178 204.303 138.454 163.761 138.057 152.748C137.632 140.793 136.529 114.464 136.529 114.464H148.8Z" fill="#666CCC"/>
<path opacity="0.2" d="M148.8 114.464C148.8 114.464 149.139 141.58 148.565 151.737C147.933 162.865 144.452 204.303 144.452 204.303H138.178C138.178 204.303 138.454 163.761 138.057 152.748C137.632 140.793 136.529 114.464 136.529 114.464H148.8Z" fill="black"/>
<path d="M156.171 92.5529L150.57 93.5008L149.984 90.3526L155.585 89.4219L156.171 92.5529Z" fill="white"/>
<path d="M135.99 111.592L139.528 110.971L137.713 115.073C137.713 115.073 134.479 115.073 134.628 113.384L135.99 111.592Z" fill="#CE7A63"/>
<path d="M142.171 113.034L140.505 116.343L137.713 115.073L139.528 110.971L142.171 113.034Z" fill="#CE7A63"/>
<path d="M137.989 88.7154L137.15 90.1746C136.863 90.6687 136.576 91.1743 136.317 91.6856C135.773 92.6967 135.247 93.7173 134.737 94.7476C134.249 95.7817 133.778 96.8158 133.353 97.8556C133.152 98.3784 132.945 98.9012 132.778 99.4182L132.508 100.2L132.278 100.975L132.227 101.17L132.198 101.268C132.198 101.303 132.198 101.268 132.198 101.268C132.198 101.268 132.198 101.308 132.169 101.354C132.155 101.501 132.155 101.65 132.169 101.797C132.215 102.25 132.31 102.696 132.451 103.129C132.782 104.172 133.187 105.189 133.663 106.174C134.628 108.237 135.8 110.322 136.949 112.356L134.846 113.999C133.09 112.214 131.505 110.267 130.113 108.185C129.373 107.095 128.731 105.941 128.194 104.738C127.889 104.051 127.655 103.335 127.493 102.601C127.4 102.157 127.352 101.705 127.349 101.251C127.347 100.98 127.366 100.709 127.407 100.441L127.441 100.24V100.119L127.493 99.8721C128.017 97.3401 128.814 94.8725 129.871 92.5128C130.377 91.3638 130.928 90.2149 131.514 89.1176C131.813 88.5431 132.089 88.0146 132.428 87.4688C132.767 86.923 133.066 86.4175 133.462 85.843L137.989 88.7154Z" fill="#CE7A63"/>
<path d="M139.264 90.031C138.376 92.494 137.346 94.9033 136.179 97.2466C135.926 97.7751 135.69 98.2405 135.495 98.6196C135.162 99.286 134.949 99.6939 134.949 99.6939L127.751 95.6725C127.751 95.6725 127.837 95.3737 128.004 94.8624C128.124 94.4775 128.291 93.9777 128.492 93.3975C129.693 89.9505 132.14 83.8782 134.541 83.5277C138.138 83.0337 140.717 85.7165 139.264 90.031Z" fill="#666CCC"/>
<path d="M141.057 73.6869L143.228 75.5023L146.175 77.9496C146.087 78.3416 146.024 78.7388 145.986 79.1388C145.831 80.7359 146.244 82.1893 148.594 82.7408C148.956 83.5107 147.83 86.4061 147.037 86.251C145.739 86.4291 140.878 83.7922 140.585 82.804C142.332 81.0346 141.654 76.2893 141.057 73.6869Z" fill="#CE7A63"/>
<path opacity="0.2" d="M146.164 77.9265C146.076 78.3186 146.012 78.7157 145.974 79.1157C144.877 78.8916 143.412 77.7254 143.257 76.5994C143.208 76.2357 143.198 75.8679 143.228 75.5021L146.164 77.9265Z" fill="black"/>
<path d="M148.163 64.5868C149.915 65.3796 150.892 70.3317 148.657 71.3773C146.422 72.4228 144.842 63.0988 148.163 64.5868Z" fill="#263238"/>
<path d="M140.166 69.9411C140.919 73.388 141.183 75.4504 143.222 77.0303C143.88 77.551 144.668 77.8818 145.5 77.9869C146.332 78.092 147.177 77.9674 147.943 77.6265C148.71 77.2856 149.368 76.7415 149.847 76.0531C150.327 75.3647 150.608 74.5583 150.662 73.7212C150.932 70.5041 149.657 65.3911 146.02 64.4087C145.238 64.1762 144.409 64.1535 143.615 64.3428C142.821 64.5321 142.091 64.9267 141.498 65.4872C140.905 66.0476 140.47 66.7541 140.236 67.5359C140.002 68.3176 139.978 69.1471 140.166 69.9411Z" fill="#CE7A63"/>
<path d="M136.26 66.3906C134.576 67.1317 135.53 69.4354 136.673 70.9004C138.264 72.9341 139.942 73.882 141.085 72.9456C142.114 72.4285 142.809 69.4067 141.895 67.5396C143.475 66.4998 148.875 68.2807 150.605 63.995C151.38 62.0762 149.938 58.8591 146.612 58.9912C146.501 59.4945 146.288 59.9697 145.986 60.3872C145.75 60.7239 145.48 61.0357 145.181 61.3179C144.867 61.6151 144.525 61.8807 144.159 62.1107C143.203 62.7797 142.024 63.0497 140.873 62.8633C137.294 62.082 134.576 64.4029 136.26 66.3906Z" fill="#263238"/>
<path d="M147.387 66.6779C148.439 66.4143 149.376 65.8131 150.053 64.9664C150.731 64.1197 151.112 63.0742 151.139 61.9901C151.495 64.5006 149.547 67.0169 147.387 66.6779Z" fill="#263238"/>
<path d="M139.367 73.5489C139.928 74.2216 140.703 74.6819 141.562 74.853C142.654 75.0368 142.895 74.0315 142.343 73.0548C141.844 72.1759 140.677 71.0211 139.701 71.2796C138.724 71.5382 138.661 72.6986 139.367 73.5489Z" fill="#CE7A63"/>
<path d="M145.618 70.2856C145.664 70.5671 145.848 70.7797 146.037 70.7567C146.227 70.7338 146.336 70.4867 146.29 70.1822C146.244 69.8778 146.06 69.6824 145.876 69.7054C145.693 69.7284 145.578 69.9984 145.618 70.2856Z" fill="#263238"/>
<path d="M148.835 69.9009C148.881 70.1824 149.065 70.3949 149.254 70.372C149.444 70.349 149.553 70.1019 149.513 69.7975C149.473 69.493 149.283 69.3034 149.093 69.3264C148.904 69.3494 148.795 69.6194 148.835 69.9009Z" fill="#263238"/>
<path d="M147.824 70.1651C148.296 70.992 148.876 71.753 149.547 72.4286C149.371 72.5905 149.161 72.7116 148.933 72.7831C148.704 72.8546 148.463 72.8748 148.226 72.8422L147.824 70.1651Z" fill="#BA4D3C"/>
<path d="M147.204 73.744C146.871 73.7486 146.54 73.6858 146.232 73.5594C145.924 73.433 145.645 73.2457 145.411 73.0087C145.397 72.992 145.389 72.9705 145.389 72.9484C145.389 72.9262 145.397 72.9048 145.411 72.888C145.418 72.8796 145.427 72.8728 145.437 72.8682C145.447 72.8635 145.458 72.8611 145.469 72.8611C145.48 72.8611 145.49 72.8635 145.5 72.8682C145.51 72.8728 145.519 72.8796 145.526 72.888C145.785 73.1407 146.098 73.3314 146.441 73.4458C146.785 73.5602 147.149 73.5954 147.508 73.5487C147.519 73.5471 147.529 73.5476 147.54 73.5502C147.55 73.5528 147.56 73.5575 147.569 73.5639C147.577 73.5703 147.584 73.5784 147.59 73.5876C147.595 73.5968 147.599 73.607 147.6 73.6177C147.602 73.6403 147.595 73.6628 147.581 73.6808C147.568 73.6988 147.548 73.7111 147.525 73.7153L147.204 73.744Z" fill="#263238"/>
<path d="M144.463 69.3667C144.437 69.375 144.409 69.375 144.383 69.3667C144.344 69.3459 144.315 69.3108 144.302 69.2688C144.289 69.2269 144.294 69.1815 144.314 69.1426C144.437 68.9064 144.617 68.7046 144.838 68.5552C145.058 68.4058 145.313 68.3135 145.578 68.2866C145.6 68.2851 145.622 68.288 145.643 68.2954C145.664 68.3028 145.683 68.3144 145.699 68.3295C145.715 68.3446 145.728 68.3629 145.737 68.3832C145.746 68.4035 145.75 68.4254 145.75 68.4475C145.752 68.4694 145.749 68.4914 145.742 68.5122C145.735 68.533 145.724 68.5522 145.71 68.5688C145.695 68.5853 145.678 68.5989 145.658 68.6086C145.638 68.6184 145.617 68.6241 145.595 68.6256C145.388 68.6494 145.19 68.7237 145.019 68.8419C144.848 68.9601 144.708 69.1186 144.613 69.3035C144.595 69.3255 144.572 69.3427 144.546 69.3538C144.52 69.3648 144.491 69.3692 144.463 69.3667Z" fill="#263238"/>
<path d="M150.053 68.6368C150.025 68.6366 149.997 68.6297 149.972 68.6167C149.947 68.6037 149.926 68.585 149.91 68.5621C149.793 68.381 149.637 68.2288 149.453 68.1173C149.268 68.0058 149.061 67.9379 148.847 67.9187C148.802 67.9172 148.76 67.8984 148.729 67.8662C148.698 67.834 148.68 67.791 148.68 67.7463C148.68 67.7021 148.698 67.6597 148.729 67.6285C148.76 67.5973 148.803 67.5797 148.847 67.5797C149.116 67.5977 149.378 67.6788 149.611 67.8165C149.843 67.9542 150.04 68.1447 150.185 68.3725C150.209 68.4091 150.218 68.4538 150.21 68.4969C150.201 68.5399 150.176 68.5778 150.139 68.6023C150.115 68.6223 150.085 68.6343 150.053 68.6368Z" fill="#263238"/>
<path d="M152.489 100.521C153.139 100.521 153.666 99.9939 153.666 99.3434C153.666 98.693 153.139 98.1657 152.489 98.1657C151.838 98.1657 151.311 98.693 151.311 99.3434C151.311 99.9939 151.838 100.521 152.489 100.521Z" fill="#263238"/>
<g opacity="0.6">
<path d="M152.489 100.521C153.139 100.521 153.666 99.9939 153.666 99.3434C153.666 98.693 153.139 98.1657 152.489 98.1657C151.838 98.1657 151.311 98.693 151.311 99.3434C151.311 99.9939 151.838 100.521 152.489 100.521Z" fill="white"/>
</g>
<path d="M147.997 89.6115C148.03 88.8829 148.112 88.1573 148.244 87.4399C148.669 84.757 149.146 81.7237 145.141 79.9715C144.649 79.7118 144.1 79.579 143.543 79.585C142.986 79.591 142.44 79.7357 141.953 80.006C139.908 81.2354 139.379 84.803 139.276 85.7509C138.919 85.7088 138.557 85.7496 138.218 85.8701C137.879 85.9907 137.573 86.1878 137.323 86.446C135.858 88.0086 136.53 91.6165 136.559 91.7601C136.571 91.8182 136.605 91.8692 136.655 91.9024C136.704 91.9356 136.764 91.9484 136.823 91.9382C136.852 91.9327 136.88 91.9214 136.904 91.9051C136.929 91.8888 136.95 91.8678 136.967 91.8432C136.984 91.8186 136.995 91.791 137.001 91.762C137.007 91.7329 137.007 91.703 137.001 91.6739C137.001 91.6394 136.34 88.1523 137.65 86.7563C137.88 86.5224 138.166 86.3504 138.48 86.256C138.794 86.1616 139.127 86.148 139.448 86.2162C139.787 86.2376 140.116 86.3394 140.408 86.5132C140.7 86.6871 140.946 86.9279 141.126 87.2158C142.275 89.0542 140.971 92.7022 140.959 92.7424C140.949 92.7704 140.945 92.8 140.946 92.8296C140.948 92.8592 140.955 92.8881 140.968 92.9149C140.981 92.9416 140.999 92.9655 141.021 92.9852C141.043 93.0049 141.069 93.02 141.097 93.0297C141.122 93.0352 141.147 93.0352 141.172 93.0297C141.218 93.0291 141.263 93.0146 141.301 92.9879C141.339 92.9613 141.368 92.9238 141.384 92.8803C141.442 92.7252 142.752 88.991 141.511 86.9688C141.31 86.6649 141.047 86.4073 140.739 86.2132C140.431 86.019 140.085 85.8928 139.724 85.8428C139.827 84.9753 140.339 81.5514 142.189 80.4426C142.615 80.2118 143.091 80.0909 143.576 80.0909C144.06 80.0909 144.537 80.2118 144.963 80.4426C148.646 82.0339 148.215 84.7628 147.801 87.3997C147.665 88.1378 147.58 88.8845 147.549 89.6345C147.491 93.2652 148.652 99.0619 152.007 99.1825V98.7286C148.876 98.585 147.951 92.5241 147.997 89.6115Z" fill="#263238"/>
<path opacity="0.2" d="M147.997 89.6115C148.03 88.8829 148.112 88.1573 148.244 87.4399C148.669 84.757 149.146 81.7237 145.141 79.9715C144.649 79.7118 144.1 79.579 143.543 79.585C142.986 79.591 142.44 79.7357 141.953 80.006C139.908 81.2354 139.379 84.803 139.276 85.7509C138.919 85.7088 138.557 85.7496 138.218 85.8701C137.879 85.9907 137.573 86.1878 137.323 86.446C135.858 88.0086 136.53 91.6165 136.559 91.7601C136.571 91.8182 136.605 91.8692 136.655 91.9024C136.704 91.9356 136.764 91.9484 136.823 91.9382C136.852 91.9327 136.88 91.9214 136.904 91.9051C136.929 91.8888 136.95 91.8678 136.967 91.8432C136.984 91.8186 136.995 91.791 137.001 91.762C137.007 91.7329 137.007 91.703 137.001 91.6739C137.001 91.6394 136.34 88.1523 137.65 86.7563C137.88 86.5224 138.166 86.3504 138.48 86.256C138.794 86.1616 139.127 86.148 139.448 86.2162C139.787 86.2376 140.116 86.3394 140.408 86.5132C140.7 86.6871 140.946 86.9279 141.126 87.2158C142.275 89.0542 140.971 92.7022 140.959 92.7424C140.949 92.7704 140.945 92.8 140.946 92.8296C140.948 92.8592 140.955 92.8881 140.968 92.9149C140.981 92.9416 140.999 92.9655 141.021 92.9852C141.043 93.0049 141.069 93.02 141.097 93.0297C141.122 93.0352 141.147 93.0352 141.172 93.0297C141.218 93.0291 141.263 93.0146 141.301 92.9879C141.339 92.9613 141.368 92.9238 141.384 92.8803C141.442 92.7252 142.752 88.991 141.511 86.9688C141.31 86.6649 141.047 86.4073 140.739 86.2132C140.431 86.019 140.085 85.8928 139.724 85.8428C139.827 84.9753 140.339 81.5514 142.189 80.4426C142.615 80.2118 143.091 80.0909 143.576 80.0909C144.06 80.0909 144.537 80.2118 144.963 80.4426C148.646 82.0339 148.215 84.7628 147.801 87.3997C147.665 88.1378 147.58 88.8845 147.549 89.6345C147.491 93.2652 148.652 99.0619 152.007 99.1825V98.7286C148.876 98.585 147.951 92.5241 147.997 89.6115Z" fill="white"/>
<path d="M141.412 92.4784L140.792 92.352C140.792 92.352 140.321 93.3459 140.712 93.501C141.102 93.6561 141.625 93.0012 141.412 92.4784Z" fill="#263238"/>
<g opacity="0.6">
<path d="M141.412 92.4784L140.792 92.352C140.792 92.352 140.321 93.3459 140.712 93.501C141.102 93.6561 141.625 93.0012 141.412 92.4784Z" fill="white"/>
</g>
<path d="M136.679 91.3694H137.311C137.311 91.3694 137.581 92.4379 137.167 92.5184C136.754 92.5988 136.369 91.8347 136.679 91.3694Z" fill="#263238"/>
<g opacity="0.6">
<path d="M136.679 91.3694H137.311C137.311 91.3694 137.581 92.4379 137.167 92.5184C136.754 92.5988 136.369 91.8347 136.679 91.3694Z" fill="white"/>
</g>
<path d="M152.891 98.8264C152.891 98.9571 152.852 99.0848 152.78 99.1935C152.707 99.3021 152.604 99.3868 152.483 99.4368C152.363 99.4868 152.23 99.4999 152.102 99.4744C151.973 99.4489 151.856 99.386 151.763 99.2936C151.671 99.2012 151.608 99.0835 151.583 98.9553C151.557 98.8271 151.57 98.6943 151.62 98.5736C151.67 98.4529 151.755 98.3497 151.863 98.2771C151.972 98.2045 152.1 98.1657 152.231 98.1657C152.406 98.1657 152.574 98.2354 152.698 98.3593C152.822 98.4832 152.891 98.6512 152.891 98.8264Z" fill="#263238"/>
<g opacity="0.7">
<path d="M152.891 98.8264C152.891 98.9571 152.852 99.0848 152.78 99.1935C152.707 99.3021 152.604 99.3868 152.483 99.4368C152.363 99.4868 152.23 99.4999 152.102 99.4744C151.973 99.4489 151.856 99.386 151.763 99.2936C151.671 99.2012 151.608 99.0835 151.583 98.9553C151.557 98.8271 151.57 98.6943 151.62 98.5736C151.67 98.4529 151.755 98.3497 151.863 98.2771C151.972 98.2045 152.1 98.1657 152.231 98.1657C152.406 98.1657 152.574 98.2354 152.698 98.3593C152.822 98.4832 152.891 98.6512 152.891 98.8264Z" fill="white"/>
</g>
<path d="M145.951 79.4088H141.683C141.659 80.0849 141.547 80.755 141.35 81.4023H146.399C146.04 80.8029 145.883 80.1041 145.951 79.4088Z" fill="#CE7A63"/>
<path d="M70.8421 43.015H69.4346V202.178H70.8421V43.015Z" fill="#263238"/>
<path opacity="0.5" d="M70.8421 43.015H69.4346V202.178H70.8421V43.015Z" fill="white"/>
<path d="M61.6559 47.2777H58.209V46.3471H60.8057L60.8114 45.6232H61.6559V47.2777Z" fill="#263238"/>
<path opacity="0.1" d="M61.6559 47.2777H58.209V46.3471H60.8057L60.8114 45.6232H61.6559V47.2777Z" fill="white"/>
<path d="M78.7241 47.2777H82.1711V46.3471H79.5801L79.5686 45.6232H78.7241V47.2777Z" fill="#263238"/>
<path opacity="0.1" d="M78.7241 47.2777H82.1711V46.3471H79.5801L79.5686 45.6232H78.7241V47.2777Z" fill="white"/>
<path d="M73.4446 137.41C68.7223 137.41 68.55 128.39 68.4178 121.14C68.3834 119.577 68.3604 118.101 68.2857 116.877C68.2225 115.861 68.1076 114.344 67.9697 112.465C67.2804 103.072 65.9935 85.5848 66.7691 75.6289C67.5561 65.4374 64.8905 51.1498 61.478 47.3122C61.3067 47.075 61.09 46.8742 60.8405 46.7214C60.591 46.5685 60.3137 46.4667 60.0245 46.4218C59.8693 46.4231 59.716 46.4559 59.5739 46.5181C59.4317 46.5803 59.3036 46.6706 59.1973 46.7837C56.1869 49.6044 55.7503 65.5236 55.7503 65.6845L53.3777 120.531L52.6538 120.497L55.0265 65.6615C55.0265 65.0008 55.4918 49.277 58.7204 46.2552C58.8942 46.0721 59.1037 45.9267 59.3359 45.8279C59.5681 45.7291 59.8181 45.679 60.0705 45.6807C60.46 45.7275 60.8358 45.8536 61.1747 46.0512C61.5136 46.2488 61.8084 46.5137 62.041 46.8297C65.6201 50.8511 68.3259 65.1502 67.5044 75.6806C66.7346 85.5848 68.0215 103.038 68.7108 112.414C68.8487 114.292 68.9636 115.815 69.0268 116.837C69.1015 118.072 69.1302 119.555 69.1589 121.129C69.2796 127.689 69.4519 136.686 73.4619 136.686C76.8399 136.686 77.6442 131.596 78.4944 126.213C78.823 123.718 79.3279 121.249 80.0053 118.825C82.1827 111.862 80.2581 73.0265 80.2409 72.8656L80.9647 72.7794C81.0337 73.4171 82.918 111.925 80.7005 119.026C80.034 121.418 79.5368 123.854 79.2125 126.316C78.3106 132.027 77.4431 137.41 73.4446 137.41Z" fill="#666CCC"/>
<path d="M54.113 208.394C55.3123 208.394 56.2846 207.421 56.2846 206.222C56.2846 205.023 55.3123 204.051 54.113 204.051C52.9137 204.051 51.9414 205.023 51.9414 206.222C51.9414 207.421 52.9137 208.394 54.113 208.394Z" fill="#263238"/>
<path opacity="0.3" d="M54.9749 206.222C54.9749 206.393 54.9244 206.559 54.8297 206.701C54.735 206.843 54.6004 206.953 54.443 207.018C54.2855 207.084 54.1122 207.101 53.9451 207.067C53.7779 207.034 53.6244 206.952 53.5039 206.832C53.3833 206.711 53.3013 206.558 53.268 206.39C53.2348 206.223 53.2518 206.05 53.3171 205.893C53.3823 205.735 53.4927 205.6 53.6344 205.506C53.7762 205.411 53.9428 205.361 54.1132 205.361C54.3417 205.361 54.5609 205.451 54.7225 205.613C54.8841 205.775 54.9749 205.994 54.9749 206.222Z" fill="black"/>
<path d="M54.1131 206.222L56.2847 205.407C56.1756 204.983 55.9411 204.602 55.6121 204.314C55.2831 204.026 54.8747 203.844 54.4405 203.792C54.0004 203.714 53.5471 203.769 53.1381 203.949C52.729 204.129 52.3825 204.426 52.1426 204.803L54.1131 206.222Z" fill="#263238"/>
<path opacity="0.2" d="M54.1131 206.222L56.2847 205.407C56.1756 204.983 55.9411 204.602 55.6121 204.314C55.2831 204.026 54.8747 203.844 54.4405 203.792C54.0004 203.714 53.5471 203.769 53.1381 203.949C52.729 204.129 52.3825 204.426 52.1426 204.803L54.1131 206.222Z" fill="black"/>
<path d="M86.2902 208.394C87.4896 208.394 88.4618 207.421 88.4618 206.222C88.4618 205.023 87.4896 204.051 86.2902 204.051C85.0909 204.051 84.1187 205.023 84.1187 206.222C84.1187 207.421 85.0909 208.394 86.2902 208.394Z" fill="#263238"/>
<path opacity="0.3" d="M85.4287 206.222C85.4287 206.393 85.4792 206.559 85.5739 206.701C85.6686 206.843 85.8032 206.953 85.9607 207.018C86.1181 207.084 86.2914 207.101 86.4586 207.067C86.6257 207.034 86.7793 206.952 86.8998 206.832C87.0203 206.711 87.1024 206.558 87.1356 206.39C87.1689 206.223 87.1518 206.05 87.0866 205.893C87.0214 205.735 86.9109 205.6 86.7692 205.506C86.6275 205.411 86.4609 205.361 86.2904 205.361C86.0619 205.361 85.8427 205.451 85.6811 205.613C85.5195 205.775 85.4287 205.994 85.4287 206.222Z" fill="black"/>
<path d="M86.2902 206.222L84.1187 205.406C84.2274 204.984 84.4609 204.604 84.7889 204.316C85.1168 204.028 85.5239 203.845 85.957 203.792C86.3927 203.719 86.8402 203.777 87.2437 203.956C87.6472 204.136 87.9889 204.431 88.2263 204.803L86.2902 206.222Z" fill="#263238"/>
<path opacity="0.2" d="M86.2902 206.222L84.1187 205.406C84.2274 204.984 84.4609 204.604 84.7889 204.316C85.1168 204.028 85.5239 203.845 85.957 203.792C86.3927 203.719 86.8402 203.777 87.2437 203.956C87.6472 204.136 87.9889 204.431 88.2263 204.803L86.2902 206.222Z" fill="black"/>
<path d="M53.7799 120.485H51.999V125.822H53.7799V120.485Z" fill="#263238"/>
<path opacity="0.1" d="M53.7799 120.485H51.999V125.822H53.7799V120.485Z" fill="white"/>
<path d="M53.3488 129.034H52.4238V127.431V125.822H53.3488V127.431V129.034Z" fill="#263238"/>
<path opacity="0.5" d="M53.3488 129.034H52.4238V127.431V125.822H53.3488V127.431V129.034Z" fill="white"/>
<path d="M52.8896 132.256L52.6655 129.034H53.1079L52.8896 132.256Z" fill="#666CCC"/>
<path opacity="0.5" d="M52.8896 132.256L52.6655 129.034H53.1079L52.8896 132.256Z" fill="white"/>
<path d="M79.4597 52.0344L78.8853 51.9252C78.8853 51.8965 79.4597 49.0528 79.5631 47.8291C79.7125 46.3125 80.2928 45.7724 80.7466 45.7724C81.2005 45.7724 81.5739 46.5135 81.8439 47.967C81.9932 48.7483 81.9875 51.7242 81.9875 51.8505H81.413C81.413 51.8505 81.413 48.8057 81.2809 48.0761C81.2262 47.4647 81.0295 46.8746 80.7064 46.3527C80.6604 46.3527 80.2698 46.7318 80.1319 47.9038C79.994 49.0758 79.5 51.9137 79.4597 52.0344Z" fill="#666CCC"/>
<path d="M84.2109 69.9702C83.9639 70.8722 81.798 73.3597 80.695 73.3597C79.592 73.3597 76.978 71.5213 76.6736 70.3379C76.3691 69.1544 77.5755 66.8278 77.7364 65.1675C77.8972 63.5072 77.0412 56.3835 77.1274 54.7864C77.2136 53.1893 77.7019 52.5804 78.4315 51.9714C79.1611 51.3624 82.3668 51.2648 82.9298 51.9714C83.4928 52.678 84.1936 53.2755 84.1936 54.5451C84.1936 55.8148 83.2974 63.984 83.3377 65.2881C83.3779 66.5922 84.4579 69.074 84.2109 69.9702Z" fill="#666CCC"/>
<path opacity="0.6" d="M84.2109 69.9702C83.9639 70.8722 81.798 73.3597 80.695 73.3597C79.592 73.3597 76.978 71.5213 76.6736 70.3379C76.3691 69.1544 77.5755 66.8278 77.7364 65.1675C77.8972 63.5072 77.0412 56.3835 77.1274 54.7864C77.2136 53.1893 77.7019 52.5804 78.4315 51.9714C79.1611 51.3624 82.3668 51.2648 82.9298 51.9714C83.4928 52.678 84.1936 53.2755 84.1936 54.5451C84.1936 55.8148 83.2974 63.984 83.3377 65.2881C83.3779 66.5922 84.4579 69.074 84.2109 69.9702Z" fill="white"/>
<path d="M83.8029 69.5221C83.6018 70.246 81.3383 72.2567 80.4478 72.2567C79.5574 72.2567 77.6098 70.5619 77.38 69.6025C77.1502 68.6431 78.1441 65.9775 78.2762 64.6217C78.4084 63.2659 77.7018 57.5267 77.7764 56.2399C78.3509 55.0162 83.4869 55.022 83.4869 56.0446C83.4869 57.0672 82.763 63.6681 82.7917 64.7194C82.8205 65.7707 83.9982 68.7983 83.8029 69.5221Z" fill="#666CCC"/>
<path opacity="0.2" d="M83.8029 69.5221C83.6018 70.246 81.3383 72.2567 80.4478 72.2567C79.5574 72.2567 77.6098 70.5619 77.38 69.6025C77.1502 68.6431 78.1441 65.9775 78.2762 64.6217C78.4084 63.2659 77.7018 57.5267 77.7764 56.2399C78.3509 55.0162 83.4869 55.022 83.4869 56.0446C83.4869 57.0672 82.763 63.6681 82.7917 64.7194C82.8205 65.7707 83.9982 68.7983 83.8029 69.5221Z" fill="white"/>
<path d="M82.3324 51.9769H78.7993C78.6622 51.9769 78.5307 51.9225 78.4337 51.8255C78.3367 51.7285 78.2823 51.597 78.2823 51.4599C78.2815 51.3915 78.2943 51.3237 78.32 51.2603C78.3456 51.1969 78.3836 51.1392 78.4316 51.0906C78.4797 51.0419 78.537 51.0033 78.6001 50.977C78.6632 50.9507 78.7309 50.9371 78.7993 50.9371H82.3324C82.4008 50.9371 82.4685 50.9507 82.5316 50.977C82.5947 51.0033 82.652 51.0419 82.7001 51.0906C82.7482 51.1392 82.7861 51.1969 82.8118 51.2603C82.8374 51.3237 82.8502 51.3915 82.8495 51.4599C82.8495 51.597 82.795 51.7285 82.698 51.8255C82.6011 51.9225 82.4696 51.9769 82.3324 51.9769Z" fill="#666CCC"/>
<path opacity="0.2" d="M82.3324 51.9769H78.7993C78.6622 51.9769 78.5307 51.9225 78.4337 51.8255C78.3367 51.7285 78.2823 51.597 78.2823 51.4599C78.2815 51.3915 78.2943 51.3237 78.32 51.2603C78.3456 51.1969 78.3836 51.1392 78.4316 51.0906C78.4797 51.0419 78.537 51.0033 78.6001 50.977C78.6632 50.9507 78.7309 50.9371 78.7993 50.9371H82.3324C82.4008 50.9371 82.4685 50.9507 82.5316 50.977C82.5947 51.0033 82.652 51.0419 82.7001 51.0906C82.7482 51.1392 82.7861 51.1969 82.8118 51.2603C82.8374 51.3237 82.8502 51.3915 82.8495 51.4599C82.8495 51.597 82.795 51.7285 82.698 51.8255C82.6011 51.9225 82.4696 51.9769 82.3324 51.9769Z" fill="white"/>
<path d="M86.2905 202.12H54.1133V203.763H86.2905V202.12Z" fill="#263238"/>
<path opacity="0.1" d="M86.2905 202.12H54.1133V203.763H86.2905V202.12Z" fill="white"/>
<path d="M82.171 43.015H58.209V44.6293H82.171V43.015Z" fill="#263238"/>
<path opacity="0.1" d="M82.171 43.015H58.209V44.6293H82.171V43.015Z" fill="white"/>
<path d="M59.4441 43.015H58.209V47.272H59.4441V43.015Z" fill="#263238"/>
<path opacity="0.1" d="M59.4441 43.015H58.209V47.272H59.4441V43.015Z" fill="white"/>
<path d="M82.1712 43.015H80.936V47.272H82.1712V43.015Z" fill="#263238"/>
<path opacity="0.1" d="M82.1712 43.015H80.936V47.272H82.1712V43.015Z" fill="white"/>
</svg>
